<svg xmlns="http://www.w3.org/2000/svg" xmlns:xlink="http://www.w3.org/1999/xlink" width="52" height="52" viewBox="0 0 52 52">
  <defs>
    <clipPath id="clip-Web_1280_1">
      <rect width="52" height="52"/>
    </clipPath>
  </defs>
  <g id="Web_1280_1" data-name="Web 1280 – 1" clip-path="url(#clip-Web_1280_1)">
    <rect width="52" height="52" fill="#fff"/>
    <g id="Grupo_58" data-name="Grupo 58">
      <g id="pizza" transform="translate(0 0.028)">
        <g id="Grupo_38" data-name="Grupo 38">
          <g id="Grupo_37" data-name="Grupo 37">
            <path id="Caminho_100" data-name="Caminho 100" d="M51.7.293A1.015,1.015,0,0,0,50.644.059L8.46,15.1A5.553,5.553,0,0,0,.424,21.959,54.459,54.459,0,0,0,12.287,39.714,54.457,54.457,0,0,0,30.042,51.577a5.552,5.552,0,0,0,7.228-7.321L51.946,1.344A1.016,1.016,0,0,0,51.7.293ZM14.847,14.979l4.471-1.594a2.588,2.588,0,1,1-4.471,1.594ZM35.424,47.793a3.528,3.528,0,0,1-4.6,1.907A52.351,52.351,0,0,1,2.3,21.181a3.524,3.524,0,0,1,6.512-2.7,45.42,45.42,0,0,0,9.9,14.809,45.422,45.422,0,0,0,14.809,9.9A3.528,3.528,0,0,1,35.424,47.793Zm9.023-30.8a2.619,2.619,0,0,1-.276-.02,2.589,2.589,0,1,1,1.872-4.649Zm2.272-6.643a4.619,4.619,0,1,0-2.947,8.616l-2.019,5.9-2.322-1.781A1.016,1.016,0,1,0,38.2,24.7l2.865,2.2L35.81,42.25a5.533,5.533,0,0,0-1.516-.939,43.33,43.33,0,0,1-23.6-23.6,5.551,5.551,0,0,0-.57-1.042l2.72-.97a4.625,4.625,0,0,0,3.987,4.04,4.684,4.684,0,0,0,.613.04,4.619,4.619,0,0,0,3.884-7.105l12.625-4.5.478,1.155A1.016,1.016,0,0,0,36.3,8.547l-.439-1.061L49.343,2.68Z" transform="translate(-0.001 0)" fill="#4ecdc4"/>
          </g>
        </g>
        <g id="Grupo_40" data-name="Grupo 40" transform="translate(9.085 26.745)">
          <g id="Grupo_39" data-name="Grupo 39">
            <path id="Caminho_101" data-name="Caminho 101" d="M91.468,264.1l-.015-.023a1.043,1.043,0,1,0,.015.023Z" transform="translate(-89.546 -263.609)" fill="#4ecdc4"/>
          </g>
        </g>
        <g id="Grupo_42" data-name="Grupo 42" transform="translate(4.948 18.618)">
          <g id="Grupo_41" data-name="Grupo 41">
            <path id="Caminho_102" data-name="Caminho 102" d="M52.23,190.289a49.29,49.29,0,0,1-2.711-5.535,1.041,1.041,0,1,0-1.924.8,51.365,51.365,0,0,0,2.826,5.769,1.041,1.041,0,1,0,1.809-1.032Z" transform="translate(-47.515 -184.111)" fill="#4ecdc4"/>
          </g>
        </g>
        <g id="Grupo_44" data-name="Grupo 44" transform="translate(26.413 12.888)">
          <g id="Grupo_43" data-name="Grupo 43">
            <path id="Caminho_103" data-name="Caminho 103" d="M266.858,127.634a4.737,4.737,0,1,0,4.078,5.315A4.771,4.771,0,0,0,266.858,127.634Zm2.013,5.043a2.659,2.659,0,0,1-2.627,2.308,2.689,2.689,0,0,1-.351-.023,2.655,2.655,0,0,1,.342-5.286,2.688,2.688,0,0,1,.351.023A2.658,2.658,0,0,1,268.872,132.677Z" transform="translate(-261.502 -127.593)" fill="#4ecdc4"/>
          </g>
        </g>
        <g id="Grupo_46" data-name="Grupo 46" transform="translate(26.15 25.451)">
          <g id="Grupo_45" data-name="Grupo 45">
            <path id="Caminho_104" data-name="Caminho 104" d="M264.252,252.021a4.733,4.733,0,0,0-5.315,4.078,4.737,4.737,0,0,0,4.078,5.315,4.737,4.737,0,0,0,1.237-9.394Zm2.013,5.043a2.66,2.66,0,0,1-2.627,2.308,2.707,2.707,0,0,1-.351-.023,2.655,2.655,0,0,1,.342-5.287,2.689,2.689,0,0,1,.351.023A2.658,2.658,0,0,1,266.265,257.064Z" transform="translate(-258.896 -251.98)" fill="#4ecdc4"/>
          </g>
        </g>
        <g id="Grupo_48" data-name="Grupo 48" transform="translate(20.492 20.978)">
          <g id="Grupo_47" data-name="Grupo 47">
            <path id="Caminho_105" data-name="Caminho 105" d="M206.71,207.242l-3.2-.421a1.041,1.041,0,1,0-.272,2.065l3.2.421a1.041,1.041,0,0,0,.272-2.065Z" transform="translate(-202.332 -206.811)" fill="#4ecdc4"/>
          </g>
        </g>
        <g id="Grupo_50" data-name="Grupo 50" transform="translate(20.914 25.885)">
          <g id="Grupo_49" data-name="Grupo 49">
            <path id="Caminho_106" data-name="Caminho 106" d="M208.518,258.476l-.283-2.148a1.041,1.041,0,0,0-2.065.272l.283,2.148a1.041,1.041,0,1,0,2.065-.272Z" transform="translate(-206.161 -255.423)" fill="#4ecdc4"/>
          </g>
        </g>
      </g>
    </g>
  </g>
</svg>
