<svg xmlns="http://www.w3.org/2000/svg" width="241" height="241" viewBox="0 0 241 241"><g transform="translate(-840 -140)"><circle cx="120.5" cy="120.5" r="120.5" transform="translate(840 140)" fill="#4ecdc4"/><text transform="translate(960 304)" fill="#fff" font-size="20" font-family="Bahnschrift" font-weight="700"><tspan x="-35.215" y="0">MONTE </tspan><tspan x="-21.382" y="28">SUA </tspan><tspan x="-26.235" y="56">PIZZA</tspan></text><g transform="translate(895.965 157.444)"><path d="M102.441,40.482a54.4,54.4,0,0,0-76.882,0,4.106,4.106,0,0,1-1.658,1.01L38.854,71.4a30.292,30.292,0,0,1,3.2,13.547v22.859a4.224,4.224,0,1,0,8.448,0V94.693l13.5,27L81.1,87.5v5.9a4.311,4.311,0,0,0,8.622,0V82.358a3.38,3.38,0,0,1,3.38-3.38h1.063A3.379,3.379,0,0,0,97.541,75.6V59.349a18.459,18.459,0,0,1,1.7-7.734l4.86-10.121A4.1,4.1,0,0,1,102.441,40.482Z" fill="#ffde3e"/><path d="M18.776,39.316a4.254,4.254,0,0,0,6.783,1.166,54.4,54.4,0,0,1,76.882,0,4.255,4.255,0,0,0,6.783-1.166l4.551-9.1a4.256,4.256,0,0,0-.946-5.053,72.663,72.663,0,0,0-97.658,0,4.256,4.256,0,0,0-.946,5.053Z" fill="#ef983b"/><circle cx="6.541" cy="6.541" r="6.541" transform="translate(57.459 75.052)" fill="#ef3829"/><circle cx="6.541" cy="6.541" r="6.541" transform="translate(40.575 41.694)" fill="#ef3829"/><circle cx="6.541" cy="6.541" r="6.541" transform="translate(74.343 50.659)" fill="#ef3829"/><path d="M114,23.862c-1.7-1.546-3.5-3.03-5.338-4.414a1.75,1.75,0,1,0-2.1,2.8c1.754,1.318,3.466,2.734,5.088,4.207a2.516,2.516,0,0,1,.558,2.976l-4.552,9.1a2.526,2.526,0,0,1-1.877,1.378,2.4,2.4,0,0,1-2.1-.667,56.147,56.147,0,0,0-79.356,0,2.394,2.394,0,0,1-2.1.667,2.527,2.527,0,0,1-1.876-1.377l-4.552-9.1a2.516,2.516,0,0,1,.558-2.976,70.952,70.952,0,0,1,83.089-8.921A1.75,1.75,0,1,0,101.2,14.5,74.453,74.453,0,0,0,14,23.862a6.027,6.027,0,0,0-1.336,7.132l4.552,9.1a6.077,6.077,0,0,0,5.431,3.346c.09,0,.175-.021.264-.025l3.107,6.212a1.75,1.75,0,1,0,3.131-1.565L26.211,42.2a5.906,5.906,0,0,0,.584-.48,52.647,52.647,0,0,1,74.409,0,6.049,6.049,0,0,0,.6.518L97.65,50.879a20.364,20.364,0,0,0-1.859,8.47V75.6a1.631,1.631,0,0,1-1.629,1.63H93.1a5.135,5.135,0,0,0-5.13,5.128V93.4a2.561,2.561,0,1,1-5.122,0V87.5a1.75,1.75,0,0,0-3.316-.782L64,117.78,52.065,93.911a1.75,1.75,0,0,0-3.315.782v13.114a2.474,2.474,0,0,1-4.948,0V84.948a32.2,32.2,0,0,0-3.383-14.33l-1.7-3.4a1.75,1.75,0,1,0-3.131,1.565l1.7,3.4A28.679,28.679,0,0,1,40.3,84.948v22.859a5.974,5.974,0,0,0,11.948,0v-5.7l10.185,20.37a1.75,1.75,0,0,0,3.13,0L79.477,94.654A6.061,6.061,0,0,0,91.469,93.4V82.357a1.631,1.631,0,0,1,1.63-1.628h1.063a5.136,5.136,0,0,0,5.129-5.13V59.349a16.8,16.8,0,0,1,1.526-6.978l4.294-8.939a6.014,6.014,0,0,0,5.678-3.333l4.552-9.1A6.027,6.027,0,0,0,114,23.862Z" fill="#422002"/><path d="M33.019,55.817a1.75,1.75,0,1,0-3.131,1.565L31.9,61.409a1.75,1.75,0,0,0,3.131-1.565Z" fill="#422002"/><path d="M55.708,81.593A8.292,8.292,0,1,0,64,73.3,8.292,8.292,0,0,0,55.708,81.593ZM64,76.8a4.792,4.792,0,1,1-4.792,4.792A4.792,4.792,0,0,1,64,76.8Z" fill="#422002"/><path d="M47.116,39.944a8.291,8.291,0,1,0,8.292,8.291A8.291,8.291,0,0,0,47.116,39.944Zm0,13.082a4.791,4.791,0,1,1,4.792-4.791A4.791,4.791,0,0,1,47.116,53.026Z" fill="#422002"/><path d="M72.592,57.2a8.292,8.292,0,1,0,8.292-8.291A8.292,8.292,0,0,0,72.592,57.2Zm13.083,0a4.792,4.792,0,1,1-4.791-4.791A4.792,4.792,0,0,1,85.675,57.2Z" fill="#422002"/><path d="M66.694,48.818a1.75,1.75,0,1,0,1.9-2.939L65.68,43.992a1.75,1.75,0,1,0-1.9,2.939Z" fill="#422002"/><path d="M84.681,41.654a1.756,1.756,0,0,0,.7-.147l2.745-1.2a1.75,1.75,0,1,0-1.4-3.207l-2.745,1.2a1.751,1.751,0,0,0,.7,3.354Z" fill="#422002"/><path d="M52.208,62.612l-2.32,3.429A1.75,1.75,0,0,0,52.787,68l2.32-3.428a1.751,1.751,0,1,0-2.9-1.962Z" fill="#422002"/><path d="M63.617,96.528l-1.458,1.2a1.75,1.75,0,1,0,2.224,2.7l1.458-1.2a1.75,1.75,0,1,0-2.224-2.7Z" fill="#422002"/><path d="M78.817,70.654A1.75,1.75,0,1,0,76.9,73.585l2.111,1.377a1.75,1.75,0,1,0,1.912-2.931Z" fill="#422002"/><path d="M89.973,19.813a1.749,1.749,0,0,0,.791,2.345,54.4,54.4,0,0,1,12.168,8.066,1.75,1.75,0,1,0,2.336-2.607,57.881,57.881,0,0,0-12.95-8.6,1.751,1.751,0,0,0-2.345.8Z" fill="#422002"/></g></g></svg>