<svg xmlns="http://www.w3.org/2000/svg" xmlns:xlink="http://www.w3.org/1999/xlink" width="341" height="512" viewBox="0 0 341 512">
  <defs>
    <clipPath id="clip-Web_1280_1">
      <rect width="341" height="512"/>
    </clipPath>
  </defs>
  <g id="Web_1280_1" data-name="Web 1280 – 1" clip-path="url(#clip-Web_1280_1)">
    <rect width="341" height="512" fill="#fff"/>
    <g id="pin" transform="translate(-85.333)">
      <g id="Grupo_1" data-name="Grupo 1" transform="translate(85.333)">
        <path id="Caminho_1" data-name="Caminho 1" d="M255.833,0c-94.012,0-170.5,76.563-170.5,170.667a171.119,171.119,0,0,0,20.47,81.1L246.509,506.5a10.653,10.653,0,0,0,18.648,0L405.915,251.687a171.1,171.1,0,0,0,20.418-81.021C426.333,76.563,349.845,0,255.833,0Zm0,256a85.333,85.333,0,1,1,85.25-85.333A85.389,85.389,0,0,1,255.833,256Z" transform="translate(-85.333)" fill="#4ecdc4"/>
      </g>
    </g>
  </g>
</svg>
