<svg xmlns="http://www.w3.org/2000/svg" xmlns:xlink="http://www.w3.org/1999/xlink" width="727" height="837" viewBox="0 0 727 837">
  <defs>
    <clipPath id="clip-Web_1280_1">
      <rect width="727" height="837"/>
    </clipPath>
  </defs>
  <g id="Web_1280_1" data-name="Web 1280 – 1" clip-path="url(#clip-Web_1280_1)">
    <rect width="727" height="837" fill="#fff"/>
    <g id="pizzalogo" transform="translate(-327.284 -271.137)">
      <g id="Layer_5" transform="translate(335.787 275.881)">
        <path id="Caminho_1" data-name="Caminho 1" d="M764.972,467.124a3.281,3.281,0,0,0-3.987,2.378l-5.635,22.28a3.283,3.283,0,1,0,6.365,1.61l5.633-22.279A3.285,3.285,0,0,0,764.972,467.124Z" transform="translate(-346.265 -280.677)" fill="#48a146"/>
        <rect id="Retângulo_1" data-name="Retângulo 1" width="40.328" height="22.485" transform="translate(155.534 65.404)" fill="#b25420"/>
        <path id="Caminho_2" data-name="Caminho 2" d="M709.89,579.433a3.283,3.283,0,0,0,3.693-4.813l-11.491-19.9A3.283,3.283,0,0,0,696.406,558L707.9,577.9A3.256,3.256,0,0,0,709.89,579.433Z" transform="translate(-344.813 -282.784)" fill="#48a146"/>
        <path id="Caminho_3" data-name="Caminho 3" d="M558.283,352.073a9.039,9.039,0,0,0-9.028-9.028H543.51V365.53h14.773Z" transform="translate(-341.081 -277.641)" fill="#b25420"/>
        <path id="Caminho_4" data-name="Caminho 4" d="M500.137,645.354l19.9,11.491a3.283,3.283,0,1,0,3.283-5.687l-19.9-11.491a3.283,3.283,0,1,0-3.283,5.687Z" transform="translate(-339.978 -284.893)" fill="#48a146"/>
        <path id="Caminho_5" data-name="Caminho 5" d="M488.05,343.045H470.86a9.039,9.039,0,0,0-9.028,9.028V365.53H488.05Z" transform="translate(-339.081 -277.641)" fill="#b25420"/>
        <path id="Caminho_6" data-name="Caminho 6" d="M776.185,617.187a19.384,19.384,0,1,0,19.384,19.384A19.407,19.407,0,0,0,776.185,617.187Z" transform="translate(-346.303 -284.353)" fill="#e53722"/>
        <path id="Caminho_7" data-name="Caminho 7" d="M616.235,487.213a15.365,15.365,0,0,0-1.316,14.9c1.622,3.982,3.093,4.99,3.524,5.042,1,.139,3.193-1.7,4.343-3.279a4.952,4.952,0,0,1,4-2.039,4.794,4.794,0,0,1,.645.043,4.924,4.924,0,0,1,3.96,3.119l2.831,7.437,6.9-2.627-2.831-7.437a4.924,4.924,0,0,1,5.7-6.552c1.89.409,4.735.308,5.4-.445.286-.326.715-2.056-.721-6.109a15.368,15.368,0,0,0-10.892-10.256,17.5,17.5,0,0,0-10.919.658h0l-2.033.774A17.5,17.5,0,0,0,616.235,487.213Z" transform="translate(-342.796 -280.956)" fill="#efd2c0"/>
        <path id="Caminho_8" data-name="Caminho 8" d="M477.129,556.638a4.925,4.925,0,1,1,7.654,6.2l-90.7,112h595.5l-59.92-73.993a4.924,4.924,0,1,1,7.653-6.2l64.94,80.192h14.778L920.384,555.48c-1.082,1.253-2.187,2.488-3.326,3.69a42.483,42.483,0,0,1-5.517,4.805c-3.3,2.456-7.771,4.863-11.67,5.36,1.623-3.58,4.634-7.277,7.1-10.265,2.487-2.964,4.514-5.158,4.514-5.158,1.378-1.455,2.7-2.965,3.985-4.5L801.124,408.209a27.153,27.153,0,0,1-4.094,3.26c-2.546,1.682-6.021,3.232-9.182,3.168a26.455,26.455,0,0,1,4.687-8.14c1.75-2.223,3.252-3.783,3.252-3.783.163-.165.315-.339.477-.506L706.807,291.739a19.261,19.261,0,0,0-29.936,0l-186.334,230.1c1.093,1.337,2.211,2.652,3.393,3.912,0,0,1.6,1.753,3.517,4.186,1.9,2.454,4.192,5.539,5.308,8.713-3.364-.07-7.131-1.872-9.875-3.807a29.584,29.584,0,0,1-4.546-3.861q-1.4-1.494-2.722-3.06L366.635,674.838h14.777ZM460.4,651.926a11.571,11.571,0,0,1-1.44,3.9,9.453,9.453,0,0,1-4.373,3.844,7.97,7.97,0,0,1-6.605-.061,6.492,6.492,0,0,1-3.414-4.255,5.088,5.088,0,0,1,.308-3.509,3.7,3.7,0,0,1,.533-.773l.215-.23s.017.117.047.337a3.983,3.983,0,0,0,.217.849,3.822,3.822,0,0,0,1.632,1.889,3.348,3.348,0,0,0,2.4.5,21.755,21.755,0,0,0,2.055-.771,20.717,20.717,0,0,0,2.646-1.261c.953-.554,1.936-1.248,2.822-1.878s1.676-1.189,2.25-1.557.929-.56.929-.56.026.34.021.947A15.278,15.278,0,0,1,460.4,651.926Zm6.138-26.744c-4.232,0-4.225-6.566,0-6.566S470.768,625.182,466.543,625.182Zm475.624,25.033c4.232,0,4.225,6.566,0,6.566S937.941,650.215,942.166,650.215Zm-15.047-7.66c4.232,0,4.225,6.566,0,6.566S922.894,642.555,927.119,642.555Zm-1.094,15.594c4.232,0,4.225,6.566,0,6.566S921.8,658.149,926.025,658.149ZM521.943,573.421a29.234,29.234,0,1,1,29.233,29.234A29.266,29.266,0,0,1,521.943,573.421Zm33.377-63.828c4.232,0,4.225,6.566,0,6.566S551.1,509.593,555.32,509.593Zm20.523,136.722a8.083,8.083,0,0,1-6.58,3.962,6.753,6.753,0,0,1-4.575-1.476,6.458,6.458,0,0,1-2.234-3.793,7.6,7.6,0,0,1,1.308-5.793,11.089,11.089,0,0,1,2.338-2.386c.593-.456.939-.673.939-.673s-.013.457-.085,1.24a25.455,25.455,0,0,0-.163,3.082,4.7,4.7,0,0,0,.976,2.967c.284.306.556.382.7.334a1.2,1.2,0,0,1,.493-.058,5.674,5.674,0,0,0,2.36-.608,9.839,9.839,0,0,0,2.5-2.511c.717-.974,1.3-1.9,1.733-2.536s.7-1,.7-1,.139.368.325,1.055a13.62,13.62,0,0,1,.471,3.074A9.568,9.568,0,0,1,575.843,646.315Zm2.731-27.288c-4.232,0-4.225-6.566,0-6.566S582.8,619.027,578.575,619.027Zm13.132,8.207c-4.232,0-4.225-6.566,0-6.566S595.932,627.234,591.707,627.234Zm.82-17.235c-4.232,0-4.225-6.566,0-6.566S596.753,610,592.528,610Zm16.106-36.9c-.139-.545-.248-1.1-.34-1.669l-.212-1.471c-.131-.957-.252-1.876-.4-2.747a11.217,11.217,0,0,0-1.372-4.248,4.112,4.112,0,0,0-1.121-1.144,12.238,12.238,0,0,0-2.045-.985,25.178,25.178,0,0,1-2.994-1.361,8.868,8.868,0,0,1-3.15-2.839,8.532,8.532,0,0,1-1.425-3.918,14.445,14.445,0,0,1,.03-3.368c.225-2,.594-3.634.675-5.044a5.357,5.357,0,0,0-.626-3.305,9.062,9.062,0,0,0-2.813-2.534c-1.2-.774-2.523-1.5-3.779-2.341a14.5,14.5,0,0,1-3.338-3.014,13.734,13.734,0,0,1-2.755-6.856,13.162,13.162,0,0,1,.487-5.3,11.137,11.137,0,0,1,1.381-2.916l.665-.869-.4.977a11.52,11.52,0,0,0-.621,2.923,12.809,12.809,0,0,0,.489,4.618,11.858,11.858,0,0,0,3.042,5.05,10.734,10.734,0,0,0,2.761,1.877c1.12.561,2.45,1.068,3.921,1.754a14.06,14.06,0,0,1,4.677,3.219,9.951,9.951,0,0,1,2.441,6.261,45.949,45.949,0,0,1-.235,5.594,12.677,12.677,0,0,0,.036,2.142,3.538,3.538,0,0,0,.434,1.316,2.576,2.576,0,0,0,.946.823,14.922,14.922,0,0,0,2.125.912,21.058,21.058,0,0,1,3.14,1.391,10.422,10.422,0,0,1,3.2,2.846,15.535,15.535,0,0,1,2.579,6.927c.169,1.069.271,2.084.368,3.044s.178,1.891.3,2.576a11.118,11.118,0,0,0,1.464,3.991,3.06,3.06,0,0,0,2.045,1.6,2.5,2.5,0,0,0,2.2-.958,5.981,5.981,0,0,0,1.481-2.977c.481-2.437,0-5.284-.15-8.1a15.135,15.135,0,0,1,1.364-7.966,7.646,7.646,0,0,1,2.382-2.746,7.44,7.44,0,0,1,2.769-1.166,5.681,5.681,0,0,1,4.1.61,4.2,4.2,0,0,1,.873.7l.26.274-.3-.216a4.172,4.172,0,0,0-.94-.5,5.061,5.061,0,0,0-3.666.108,5.933,5.933,0,0,0-3.543,3.7,12.815,12.815,0,0,0-.053,6.658c.468,2.493,1.5,5.3,1.39,8.924a10.691,10.691,0,0,1-1.84,5.612,8.814,8.814,0,0,1-2.438,2.392,7.242,7.242,0,0,1-3.674,1.189,7.394,7.394,0,0,1-3.933-.885,9.713,9.713,0,0,1-2.908-2.443A15.818,15.818,0,0,1,608.633,573.1Zm57.01,69.259c-2.891,6.758-6.828,10.428-11.7,10.908a11.87,11.87,0,0,1-7.387-1.874l-2.129,5.313a4.924,4.924,0,0,1-6.4,2.74l-16-6.41a4.925,4.925,0,0,1-2.739-6.4l2.128-5.312a11.871,11.871,0,0,1-6.639-3.745c-3.195-3.714-3.51-9.087-.935-15.972a25.043,25.043,0,0,1,17.849-16.156,27.292,27.292,0,0,1,17.012,1.245l2.019.81a27.3,27.3,0,0,1,13.168,10.845A25.043,25.043,0,0,1,665.644,642.359Zm26.195-221.435a29.234,29.234,0,1,1,29.234-29.233A29.266,29.266,0,0,1,691.838,420.925Zm9.028,83.471c-4.232,0-4.225-6.566,0-6.566S705.091,504.4,700.867,504.4Zm-24.487-54.664a9.849,9.849,0,0,1-1.135-2.421,14.2,14.2,0,0,1-.5-2.243c-.2-1.408-.222-2.624-.3-3.637-.105-2-.653-3.374-1.143-3.74a1.973,1.973,0,0,0-.815-.419c-.1.007,0-.111-.242.029a9.5,9.5,0,0,1-1.766,1.108,4.349,4.349,0,0,1-3.1.1,5.038,5.038,0,0,1-2.036-1.352,6.027,6.027,0,0,1-1.587-3.578,18.322,18.322,0,0,1,.69-4.727c.055-.274.085-.527.109-.755a2.8,2.8,0,0,0,0-.585,3.314,3.314,0,0,0-.273-1.053c-.569-1.206-1.273-1.061-1.266-1.107a1.416,1.416,0,0,1,.468-.158,2.061,2.061,0,0,1,1.623.656,4.689,4.689,0,0,1,1.417,3.033,25.967,25.967,0,0,0,.474,4.153,2.518,2.518,0,0,0,1,1.267.954.954,0,0,0,.563.183c.053-.017.075-.037.081-.066a.459.459,0,0,0-.018-.06c-.087-.086.054-.179.436-.614a5.232,5.232,0,0,1,2.043-1.321,6.337,6.337,0,0,1,4.936.449,6.952,6.952,0,0,1,2.028,1.555,8.906,8.906,0,0,1,1.349,1.972,14,14,0,0,1,1.245,4.076c.207,1.293.305,2.433.474,3.4a6.366,6.366,0,0,0,.685,2.175,2.151,2.151,0,0,0,.691.763c.081.025.059.139.471-.077a4.187,4.187,0,0,0,1.235-1.454,8,8,0,0,0,.834-2.316,20.889,20.889,0,0,1,2.075-6.264,8.227,8.227,0,0,1,5.012-3.644,26.011,26.011,0,0,1,4.381-.693,24.278,24.278,0,0,0,3.216-.486,10.267,10.267,0,0,0,2.036-.719l.7-.375-.518.587a9.938,9.938,0,0,1-1.737,1.414,21.221,21.221,0,0,1-3.018,1.543,35.2,35.2,0,0,0-3.624,1.682,4.881,4.881,0,0,0-2.363,2.545,19.808,19.808,0,0,0-.647,4.957c-.045.553-.1,1.118-.209,1.779a11.794,11.794,0,0,1-.554,2.078,10.218,10.218,0,0,1-2.551,3.974,7.2,7.2,0,0,1-2.539,1.574,6.764,6.764,0,0,1-3.351.286A7.582,7.582,0,0,1,676.379,449.732Zm9.714,40.711c-4.232,0-4.225-6.566,0-6.566S690.317,490.443,686.093,490.443Zm-.547,19.7c-4.232,0-4.225-6.566,0-6.566S689.771,510.14,685.546,510.14Zm-4.311,45.392a11.491,11.491,0,1,1,19.9-11.491l11.491,19.9a11.49,11.49,0,1,1-19.9,11.49ZM704.7,607.809c-4.232,0-4.225-6.566,0-6.566S708.921,607.809,704.7,607.809Zm10.432,28.861c-1.212,2.777-3.312,5.47-3.863,8.018a12.666,12.666,0,0,0,.074,4.438,19.444,19.444,0,0,1,.05,7.132,10.967,10.967,0,0,1-1.812,3.965,7.846,7.846,0,0,1-4.049,2.937,7,7,0,0,1-5.118-.483,8.363,8.363,0,0,1-3.146-2.908,10.271,10.271,0,0,1-1.408-3.377,13.558,13.558,0,0,1-.258-3.09c.048-1.858.3-3.354.388-4.637a8.159,8.159,0,0,0-.99-5.374,3.86,3.86,0,0,0-1.432-1.307,3.54,3.54,0,0,1,2.143.566,8.747,8.747,0,0,1,3.555,5.87c.633,2.858.724,6.448,2.44,8.029a2.8,2.8,0,0,0,1.2.808.836.836,0,0,0,.7-.088,2.2,2.2,0,0,0,.646-.662,5.5,5.5,0,0,0,.713-1.647,7.461,7.461,0,0,0,.233-2.123c0-.858-.059-1.8-.1-2.82a16.22,16.22,0,0,1,.813-6.681,15.849,15.849,0,0,1,3.257-4.9c1.135-1.228,2.206-2.24,3.048-3.193a10.721,10.721,0,0,0,2.833-5.543,6.736,6.736,0,0,0-.058-1.924c-.11-.455-.168-.694-.168-.694l.419.566a6.818,6.818,0,0,1,.821,1.889A11.388,11.388,0,0,1,715.129,636.67Zm2.426-18.465c-4.232,0-4.225-6.566,0-6.566S721.78,618.205,717.555,618.205Zm4.651-15.046c-4.232,0-4.225-6.566,0-6.566S726.431,603.159,722.206,603.159Zm12.961-88.126a35.417,35.417,0,0,0-.44-3.738,5.209,5.209,0,0,0-.294-.93c-.124-.187.049-.2-.249-.368s-1.029-.3-1.911-.689a5.838,5.838,0,0,1-2.05-1.564,7.084,7.084,0,0,1-1.545-3.461,10.284,10.284,0,0,1-.057-2.5,16.743,16.743,0,0,1,.286-1.941l.734,1.826a7.013,7.013,0,0,0,2.825,3.68,2.352,2.352,0,0,0,1.081.279,14.2,14.2,0,0,1,1.606-.012,5.117,5.117,0,0,1,2.871,1.21,7.581,7.581,0,0,1,1.841,2.4,20.364,20.364,0,0,1,1.5,4.758c.159.719.309,1.373.479,1.947a6.538,6.538,0,0,0,.526,1.358,3.986,3.986,0,0,0,1.3,1.389c.117.073.08.148.191.187s.293.01.547-.218a5.562,5.562,0,0,0,1.275-2.5,25.81,25.81,0,0,1,1.1-3.475,5.578,5.578,0,0,1,2.042-2.553,3.636,3.636,0,0,1,2.147-.622,1.584,1.584,0,0,1,1.344.681,1.576,1.576,0,0,0-1.049.3,2.837,2.837,0,0,0-.894,1.026,3.706,3.706,0,0,0-.363,1.781c-.023.782.095,1.763.156,3.067a10.036,10.036,0,0,1-.912,4.978,6.607,6.607,0,0,1-2.459,2.724,6.281,6.281,0,0,1-4.147.826,8.508,8.508,0,0,1-5.887-4.161A13.773,13.773,0,0,1,735.167,515.033Zm5.274-88.621a5.021,5.021,0,0,0-.385-.708,2.722,2.722,0,0,1,1.01-.105,4.577,4.577,0,0,1,2.711,1.162,5.922,5.922,0,0,1,2,4.5,6.978,6.978,0,0,1-9.867,6.138,5.9,5.9,0,0,1-3.111-3.725,4.513,4.513,0,0,1,.135-2.9,3.009,3.009,0,0,1,.367-.65l.157-.2a4.525,4.525,0,0,0,.475.61,4.86,4.86,0,0,0,1.444,1.1,3.677,3.677,0,0,0,1.985.415,4.429,4.429,0,0,0,1.62-.632,4.688,4.688,0,0,0,1.351-1.172,3.471,3.471,0,0,0,.514-1.994A4.83,4.83,0,0,0,740.44,426.412Zm25.352,42.246-5.633,22.28a11.5,11.5,0,0,1-11.121,8.678,11.6,11.6,0,0,1-2.838-.355,11.491,11.491,0,0,1-8.323-13.957l5.635-22.28a11.491,11.491,0,0,1,22.28,5.634Zm2.375-52.629c4.232,0,4.225,6.566,0,6.566S763.942,416.028,768.167,416.028Zm-1.535,241.635a29.233,29.233,0,1,1,29.232-29.233A29.266,29.266,0,0,1,766.632,657.663Zm55.7-21.4c-4.232,0-4.225-6.566,0-6.566S826.562,636.262,822.337,636.262Zm26.635,24.272a7.293,7.293,0,0,1-6.8,2.863,5.978,5.978,0,0,1-3.238-1.525,5.237,5.237,0,0,1-1.491-2.546,4.679,4.679,0,0,1,.573-3.795,3.078,3.078,0,0,1,.706-.752l.285-.2s-.018.125-.052.36a2.936,2.936,0,0,0,.031.93,3.109,3.109,0,0,0,1.434,2.067,1.8,1.8,0,0,0,1.152.3,2.486,2.486,0,0,0,.86-.378,5.488,5.488,0,0,0,1.269-1.251,7.692,7.692,0,0,0,1.234-2.241,13.075,13.075,0,0,0,.672-3.243c.106-1.1.146-2.1.192-2.808s.088-1.129.088-1.129a10.016,10.016,0,0,1,.8.615,12.11,12.11,0,0,1,1.945,2.044,9.736,9.736,0,0,1,1.84,4.268A8.45,8.45,0,0,1,848.971,660.534Zm12.094-76.906a6.929,6.929,0,0,0-5.277,3.672,9.04,9.04,0,0,0-.932,4.006,19.235,19.235,0,0,0,.77,4.86,17.661,17.661,0,0,1,.6,7.126,8.933,8.933,0,0,1-2.131,4.429,8.609,8.609,0,0,1-4.524,2.592,8.266,8.266,0,0,1-5.272-.564,8.606,8.606,0,0,1-3.724-3.32,8.417,8.417,0,0,1-1.2-4.525,14.7,14.7,0,0,1,.557-3.524c.259-.974.526-1.841.669-2.5a7.448,7.448,0,0,0,.163-1.986,3.082,3.082,0,0,0-.412-1.443,2.884,2.884,0,0,0-1.339-1.018,6.82,6.82,0,0,1-2.057-1.349,3.834,3.834,0,0,1-1.006-1.982,6.275,6.275,0,0,1,.34-3.087,11.838,11.838,0,0,1,.757-1.726l.319-.572s-.015.215-.042.624a14.68,14.68,0,0,0-.01,1.736,5.245,5.245,0,0,0,.56,2.242,1.5,1.5,0,0,0,.684.627,5.614,5.614,0,0,0,1.292.309,10.653,10.653,0,0,1,1.272.3,5.8,5.8,0,0,1,1.635.823,6.6,6.6,0,0,1,2.261,3.076,10.416,10.416,0,0,1,.627,3.465,25.535,25.535,0,0,1-.217,3.174,12.8,12.8,0,0,0-.1,2.418,2.622,2.622,0,0,0,.456,1.387,2.66,2.66,0,0,0,1.056.87,2.083,2.083,0,0,0,1.238.144,2.561,2.561,0,0,0,1.239-.594,2.654,2.654,0,0,0,.74-1.242,15,15,0,0,0,.1-4.995c-.073-.994-.146-2.035-.134-3.121a14.338,14.338,0,0,1,.38-3.264,11.889,11.889,0,0,1,2.729-5.339,8.848,8.848,0,0,1,4.288-2.635,8.174,8.174,0,0,1,3.7-.128,6.417,6.417,0,0,1,2.16.866,5.937,5.937,0,0,1,.65.471,7.173,7.173,0,0,0-.76-.211A6.3,6.3,0,0,0,861.066,583.628Zm33.941,51.786a11.49,11.49,0,0,1-21.23.238l-9.031-21.132a11.49,11.49,0,1,1,21.132-9.031l9.031,21.132A11.413,11.413,0,0,1,895.007,635.414ZM797.55,429.864a4.922,4.922,0,0,1,6.925.728l93.467,115.421a4.924,4.924,0,1,1-7.653,6.2L796.822,436.791A4.923,4.923,0,0,1,797.55,429.864Zm15.485,64.408c-4.232,0-4.225-6.566,0-6.566S817.26,494.273,813.035,494.273ZM778.392,545.7c-1.552-4.647.192-9.74,5.184-15.136a25.028,25.028,0,0,1,22.636-8.193,27.3,27.3,0,0,1,15.274,7.6l1.562,1.513a27.293,27.293,0,0,1,8.081,15.022,25.048,25.048,0,0,1-7.466,22.89c-5.236,5.16-10.262,7.07-14.964,5.664a11.865,11.865,0,0,1-6.127-4.532l-3.98,4.111a4.927,4.927,0,0,1-6.964.112L779.244,562.75a4.924,4.924,0,0,1-.112-6.963l3.982-4.112A11.877,11.877,0,0,1,778.392,545.7ZM636.21,360.194l48.781-60.238a8.834,8.834,0,0,1,13.678-.021l71.79,88.652a4.924,4.924,0,1,1-7.653,6.2L691.838,307.15l-47.974,59.242a4.925,4.925,0,0,1-7.654-6.2Zm1.458,47.079c4.232,0,4.225,6.566,0,6.566S633.444,407.273,637.669,407.273Zm-3.327,57.494a25.043,25.043,0,0,1,17.567,16.462c2.456,6.929,2.048,12.3-1.211,15.954a11.861,11.861,0,0,1-6.7,3.629l2.036,5.349a4.924,4.924,0,0,1-2.85,6.354l-16.11,6.131a4.917,4.917,0,0,1-6.354-2.851l-2.036-5.348a11.86,11.86,0,0,1-7.419,1.745c-4.866-.564-8.739-4.3-11.512-11.11a25.037,25.037,0,0,1,2.174-23.976A27.289,27.289,0,0,1,615.28,466.49l2.032-.774A27.31,27.31,0,0,1,634.342,464.767ZM623.51,432.031a16.7,16.7,0,0,1-.836,2.98,18.272,18.272,0,0,1-2.2,4.094,16.741,16.741,0,0,1-1.843,2.18,7.58,7.58,0,0,1-3.779,2.1,5.508,5.508,0,0,1-5.485-2.05,6.431,6.431,0,0,1-1.3-4.353,9.435,9.435,0,0,1,2.161-4.966,18.273,18.273,0,0,0,1.527-2.158,4.651,4.651,0,0,0,.384-.859,2.7,2.7,0,0,1,.638.954,7.906,7.906,0,0,1,.5,3.272c-.018,1.34-.094,2.892.327,3.647.015.021.034.04.051.061a1.068,1.068,0,0,0,.16-.046,5.221,5.221,0,0,0,.685-.334l1.878-1.176,3.568-2.184,3.724-2.28A10.362,10.362,0,0,1,623.51,432.031ZM522.526,500.578l90.686-111.986a4.925,4.925,0,1,1,7.654,6.2L530.18,506.778a4.925,4.925,0,1,1-7.654-6.2ZM488.6,628.083a11.49,11.49,0,0,1,15.7-4.205l19.9,11.491a11.5,11.5,0,0,1,4.206,15.7h0a11.5,11.5,0,0,1-15.7,4.205L492.8,643.78a11.49,11.49,0,0,1-4.206-15.7Z" transform="translate(-336.75 -276.211)" fill="#f5cd00"/>
        <path id="Caminho_9" data-name="Caminho 9" d="M891.013,616.8a3.282,3.282,0,1,0-6.036,2.579l9.031,21.134a3.282,3.282,0,1,0,6.036-2.579Z" transform="translate(-349.434 -284.295)" fill="#48a146"/>
        <path id="Caminho_10" data-name="Caminho 10" d="M803.084,551.321a4.925,4.925,0,0,1,2.656,8.271L800.2,565.31l5.306,5.139,5.537-5.718a4.925,4.925,0,0,1,8.352,2.39c.428,1.885,1.728,4.42,2.691,4.7.422.126,2.168-.225,5.226-3.242a15.374,15.374,0,0,0,4.673-14.212,17.519,17.519,0,0,0-5.224-9.611h0l-1.562-1.512a17.517,17.517,0,0,0-9.774-4.914,15.374,15.374,0,0,0-14.053,5.123c-2.926,3.164-3.21,4.921-3.073,5.331C798.639,549.8,801.436,551.021,803.084,551.321Z" transform="translate(-347.318 -282.419)" fill="#efd2c0"/>
        <rect id="Retângulo_2" data-name="Retângulo 2" width="36.419" height="17.743" transform="translate(122.75 118.764)" fill="#b25420"/>
        <path id="Caminho_11" data-name="Caminho 11" d="M506.021,490.246,520.389,472.5H492.232v17.743Z" transform="translate(-339.825 -280.811)" fill="#b25420"/>
        <path id="Caminho_12" data-name="Caminho 12" d="M539.332,447.583h-77.5v17.744h63.132Z" transform="translate(-339.081 -280.201)" fill="#d52c20"/>
        <rect id="Retângulo_3" data-name="Retângulo 3" width="23.09" height="17.743" transform="translate(122.75 191.692)" fill="#d52c20"/>
        <rect id="Retângulo_4" data-name="Retângulo 4" width="62.285" height="17.743" transform="translate(122.75 143.073)" fill="#b25420"/>
        <rect id="Retângulo_5" data-name="Retângulo 5" width="94.451" height="17.744" transform="translate(122.75 94.454)" fill="#d52c20"/>
        <path id="Caminho_13" data-name="Caminho 13" d="M461.831,522.341v22.774l18.443-22.774Z" transform="translate(-339.081 -282.031)" fill="#d52c20"/>
        <path id="Caminho_14" data-name="Caminho 14" d="M499.96,497.422H461.831v17.743h23.761Z" transform="translate(-339.081 -281.421)" fill="#b25420"/>
        <path id="Caminho_15" data-name="Caminho 15" d="M956.306,1096.89H341.565a.822.822,0,0,0-.82.82v16.415a.822.822,0,0,0,.82.82h699.278a.822.822,0,0,0,.82-.82V1097.71a.822.822,0,0,0-.82-.82H956.306Z" transform="translate(-336.116 -296.098)" fill="#efd2c0"/>
        <path id="Caminho_16" data-name="Caminho 16" d="M699.514,374.507A19.385,19.385,0,1,0,718.9,393.892,19.407,19.407,0,0,0,699.514,374.507Z" transform="translate(-344.425 -278.412)" fill="#e53722"/>
        <rect id="Retângulo_6" data-name="Retângulo 6" width="51.466" height="17.743" transform="translate(165.735 118.764)" fill="#d52c20"/>
        <path id="Caminho_17" data-name="Caminho 17" d="M653.463,624.925l-2.019-.809a17.53,17.53,0,0,0-10.907-.847,15.369,15.369,0,0,0-11.066,10.064c-1.509,4.035-1.107,5.769-.825,6.1.7.808,3.75.884,5.389.536a4.924,4.924,0,0,1,5.59,6.649L636.665,654l6.858,2.748,2.959-7.388a4.924,4.924,0,0,1,8.634-.95c1.11,1.58,3.227,3.4,4.271,3.332.43-.045,1.919-1.027,3.609-4.98a15.371,15.371,0,0,0-1.057-14.922A17.521,17.521,0,0,0,653.463,624.925Z" transform="translate(-343.158 -284.49)" fill="#efd2c0"/>
        <path id="Caminho_18" data-name="Caminho 18" d="M546.376,440.407l11.635-14.366v-3.376h-25.6v17.743Z" transform="translate(-340.809 -279.591)" fill="#b25420"/>
        <rect id="Retângulo_7" data-name="Retângulo 7" width="530.203" height="275.772" transform="translate(89.987 511.89)" fill="#f49600"/>
        <rect id="Retângulo_8" data-name="Retângulo 8" width="39.396" height="38.602" transform="translate(633.322 540.14)" fill="#b25420"/>
        <path id="Caminho_19" data-name="Caminho 19" d="M985.217,914.6h39.4V876h-39.4v38.6Zm29.961-5.321c-3.174,0-3.168-4.924,0-4.924S1018.339,909.277,1015.178,909.277Zm-.829-13.952c3.174,0,3.168,4.924,0,4.924S1011.188,895.325,1014.349,895.325Zm-9.433,4.924c3.174,0,3.168,4.924,0,4.924S1001.745,900.249,1004.916,900.249Z" transform="translate(-351.895 -290.69)" fill="#d52c20"/>
        <path id="Caminho_20" data-name="Caminho 20" d="M1024.611,800.737h-39.4v21.684h39.4Zm-29,13.406c-3.174,0-3.168-4.924,0-4.924S998.781,814.143,995.613,814.143Z" transform="translate(-351.895 -288.847)" fill="#d52c20"/>
        <rect id="Retângulo_9" data-name="Retângulo 9" width="39.396" height="38.602" transform="translate(633.322 630.474)" fill="#d52c20"/>
        <rect id="Retângulo_10" data-name="Retângulo 10" width="39.396" height="38.602" transform="translate(37.459 720.809)" fill="#b25420"/>
        <rect id="Retângulo_11" data-name="Retângulo 11" width="39.396" height="38.601" transform="translate(633.322 675.643)" fill="#b25420"/>
        <path id="Caminho_21" data-name="Caminho 21" d="M374.4,960.9h39.4V922.3H374.4Zm32.283-5.349c-3.174,0-3.168-4.924,0-4.924S409.85,955.551,406.682,955.551Zm-3.831-13.679c3.174,0,3.168,4.924,0,4.924S399.682,941.873,402.851,941.873Zm-5.472,6.566c3.174,0,3.168,4.924,0,4.924S394.211,948.439,397.379,948.439Z" transform="translate(-336.94 -291.824)" fill="#b25420"/>
        <path id="Caminho_22" data-name="Caminho 22" d="M555.321,560.8a19.385,19.385,0,1,0,19.385,19.384A19.406,19.406,0,0,0,555.321,560.8Z" transform="translate(-340.895 -282.973)" fill="#e53722"/>
        <rect id="Retângulo_12" data-name="Retângulo 12" width="39.396" height="21.683" transform="translate(37.459 765.976)" fill="#d52c20"/>
        <rect id="Retângulo_13" data-name="Retângulo 13" width="39.396" height="38.601" transform="translate(37.459 675.643)" fill="#d52c20"/>
        <rect id="Retângulo_14" data-name="Retângulo 14" width="39.396" height="38.601" transform="translate(37.459 585.308)" fill="#d52c20"/>
        <rect id="Retângulo_15" data-name="Retângulo 15" width="39.396" height="21.684" transform="translate(37.459 511.89)" fill="#b25420"/>
        <path id="Caminho_23" data-name="Caminho 23" d="M1030.177,698.093H352.236a11.5,11.5,0,0,0-11.491,11.49v48.151H601.972a4.924,4.924,0,0,1,0,9.849H340.745V773.6a11.5,11.5,0,0,0,11.491,11.491h677.939a11.5,11.5,0,0,0,11.491-11.491v-6.018H691.2a4.924,4.924,0,0,1,0-9.849h350.459V709.583A11.5,11.5,0,0,0,1030.177,698.093ZM647.93,767.583h-15a4.924,4.924,0,0,1,0-9.849h15a4.924,4.924,0,0,1,0,9.849Z" transform="translate(-336.116 -286.334)" fill="#f2c673"/>
        <path id="Caminho_24" data-name="Caminho 24" d="M374.4,868.3h39.4V829.7H374.4Zm9.3-12.409c3.174,0,3.168,4.924,0,4.924S380.532,855.89,383.7,855.89Z" transform="translate(-336.94 -289.556)" fill="#d52c20"/>
        <rect id="Retângulo_16" data-name="Retângulo 16" width="39.396" height="21.683" transform="translate(633.322 765.976)" fill="#b25420"/>
        <path id="Caminho_25" data-name="Caminho 25" d="M985.217,1053.5h39.4v-38.6h-39.4v38.6Zm8.207-9.911c3.174,0,3.169,4.924,0,4.924S990.256,1043.59,993.424,1043.59Z" transform="translate(-351.895 -294.091)" fill="#d52c20"/>
        <path id="Caminho_26" data-name="Caminho 26" d="M495.724,649.057a32.333,32.333,0,0,0,11.728,17.958,20.788,20.788,0,0,0,9.415,4.3,12.282,12.282,0,0,0,9.8-2.573,8.786,8.786,0,0,0,2.632-9.461,9.01,9.01,0,0,1-6.074,2.986c-4.349.292-8.226-2.559-11.535-5.4s-6.825-5.956-11.163-6.381" transform="translate(-339.911 -285.134)" fill="#f49600"/>
        <path id="Caminho_27" data-name="Caminho 27" d="M336,764.279h709.851s6.829,29.643-18.86,29.643H361.851S336,800.159,336,764.279Z" transform="translate(-336 -287.955)" fill="#d59750"/>
        <rect id="Retângulo_17" data-name="Retângulo 17" width="542.387" height="10.944" transform="translate(83.894 511.89)" fill="#f47700"/>
        <rect id="Retângulo_18" data-name="Retângulo 18" width="530.203" height="148.172" transform="translate(89.987 652.621)" fill="#f47700"/>
        <path id="Caminho_28" data-name="Caminho 28" d="M336,706.694h708.225s-1.951-12.194-21.949-12.194H356.486S339.414,696.284,336,706.694Z" transform="translate(-336 -286.246)" fill="#fff"/>
        <rect id="Retângulo_19" data-name="Retângulo 19" width="12.841" height="287.363" transform="translate(31.541 506.383)" fill="#f5cd00" opacity="0.6"/>
        <rect id="Retângulo_20" data-name="Retângulo 20" width="19.878" height="287.777" transform="translate(60.439 505.968)" fill="#422834" opacity="0.4"/>
        <rect id="Retângulo_21" data-name="Retângulo 21" width="12.841" height="287.363" transform="translate(678.635 793.745) rotate(180)" fill="#f5cd00" opacity="0.6"/>
        <rect id="Retângulo_22" data-name="Retângulo 22" width="19.878" height="287.777" transform="translate(649.735 793.745) rotate(180)" fill="#422834" opacity="0.4"/>
        <path id="Caminho_29" data-name="Caminho 29" d="M336.333,1110h712.778s-4.878,11.706-15.608,11.706H340.637" transform="translate(-336.008 -296.419)" fill="#f49600"/>
        <path id="Caminho_30" data-name="Caminho 30" d="M714,288.682C710.1,282.829,691.566,276,691.566,276s-18.535,6.829-22.437,12.682S355.5,680.352,355.5,680.352h26.827L691.566,301.363,1000.8,680.352h26.827S717.905,294.535,714,288.682Z" transform="translate(-336.477 -276)" fill="#f49600"/>
        <path id="Caminho_31" data-name="Caminho 31" d="M470.973,337.652V539.577l-12.309,8.21V345.13S456.618,334.4,470.973,337.652Z" transform="translate(-339.001 -277.494)" fill="#f5cd00" opacity="0.6"/>
        <path id="Caminho_32" data-name="Caminho 32" d="M516.109,334.5v150.6l50.233-61.283v-78.1S540.115,332.544,516.109,334.5Z" transform="translate(-340.41 -277.427)" fill="#422834" opacity="0.4"/>
        <path id="Caminho_33" data-name="Caminho 33" d="M529.9,593.041a26.961,26.961,0,0,0,7.08,19.942,22.807,22.807,0,0,0,19.754,6.879,19.789,19.789,0,0,0,15.606-13.5c.423-1.459.518-3.339-.744-4.185-1.441-.966-3.291.2-4.79,1.072-5.181,3.016-11.827,2.505-17.334.137s-10.122-6.373-14.639-10.315" transform="translate(-340.746 -283.762)" fill="#f49600"/>
        <path id="Caminho_34" data-name="Caminho 34" d="M632.456,664.767c1.242,3.514,3.228,7.089,6.627,8.618,3.638,1.636,7.959.483,11.426-1.491s6.458-4.717,9.986-6.576c2.083-1.1,4.382-1.909,6.067-3.554s2.514-4.519,1.032-6.348c-4.457,1.855-9.449,3.73-13.976,2.055-1.777-.657-3.58-1.86-5.4-1.345-1.954.551-2.917,2.827-4.735,3.729-2.525,1.252-5.6-.689-6.972-3.15s-5.075-17.588-10.77-10.02c-2.073,2.754,1.006,5.128,2.458,7.414C630.3,657.411,631.162,661.108,632.456,664.767Z" transform="translate(-343.077 -285.024)" fill="#f49600"/>
        <path id="Caminho_35" data-name="Caminho 35" d="M751.31,648.714a26.692,26.692,0,0,0,11.47,20.125,23.755,23.755,0,0,0,22.867,1.862,21.416,21.416,0,0,0,12.124-19.186c-5.817,4.343-12.357,8.055-19.545,9.065s-15.123-1.1-19.717-6.722" transform="translate(-346.168 -285.125)" fill="#f49600"/>
        <path id="Caminho_36" data-name="Caminho 36" d="M695.678,567.6c.128,6.032.3,12.272,2.891,17.722s8.288,9.91,14.263,9.076a10.72,10.72,0,0,0,6.87-17.339,9.165,9.165,0,0,1-17.8-.839" transform="translate(-344.806 -283.139)" fill="#f49600"/>
        <path id="Caminho_37" data-name="Caminho 37" d="M791.335,566.916c-2.974,3.68-2.5,9.246-.152,13.351s6.218,7.082,9.983,9.946a12.245,12.245,0,0,0,4.545,2.526,4.185,4.185,0,0,0,4.586-1.681c.519-.948.522-2.146,1.18-3a3.67,3.67,0,0,1,3.618-.99c1.294.246,2.509.832,3.812,1.028,2.97.446,5.97-1.285,7.686-3.751a16.252,16.252,0,0,0,2.479-8.541,14.2,14.2,0,0,1-12.456-.65c-1.748-.988-3.4-2.395-5.41-2.492-1.966-.1-3.737,1.1-5.638,1.612a8.539,8.539,0,0,1-9.6-4.4" transform="translate(-347.097 -283.123)" fill="#f49600"/>
        <path id="Caminho_38" data-name="Caminho 38" d="M882.642,630.3c1.613,3.792,2.149,7.936,2.954,11.976s1.96,8.157,4.556,11.357,6.956,5.274,10.91,4.111c3.382-1,5.792-4.131,6.864-7.49s1.026-6.957.97-10.483a6.427,6.427,0,0,0-4.94,1.3A33.855,33.855,0,0,1,899.6,644a8.472,8.472,0,0,1-11.193-5.058" transform="translate(-349.384 -284.674)" fill="#f49600"/>
        <path id="Caminho_39" data-name="Caminho 39" d="M753.74,498.486a31.906,31.906,0,0,0,11.734,6.585,6.2,6.2,0,0,0,3.646.283c2.012-.637,2.953-2.886,3.645-4.88,2.15-6.2,4.328-12.795,2.933-19.21a5.99,5.99,0,0,0-1.27-2.847,2.621,2.621,0,0,0-2.851-.783c-1.026.449-1.472,1.635-1.814,2.7q-2.684,8.361-5.366,16.723" transform="translate(-346.228 -280.933)" fill="#f49600"/>
        <path id="Caminho_40" data-name="Caminho 40" d="M725.184,399.6c3.064,6.756,1.016,15.161-4,20.625s-12.531,8.194-19.941,8.544c-4.758.224-9.714-.517-13.7-3.119s-6.8-7.328-6.192-12.052a30.287,30.287,0,0,0,40.856-7.911" transform="translate(-344.453 -279.026)" fill="#f49600"/>
        <path id="Caminho_41" data-name="Caminho 41" d="M612.639,511.046a7.828,7.828,0,0,0,8.6,10.987c-.778,4.192,2.07,8.53,5.985,10.221s8.552,1.052,12.346-.893a30.858,30.858,0,0,0,9.54-8.379c1.586-1.958,3.1-4.774,1.619-6.817-1.225-1.7-3.838-1.657-5.727-.759s-3.418,2.432-5.3,3.346a9.54,9.54,0,0,1-11.984-3.664c-1-1.723-1.593-3.93-3.4-4.767a4.333,4.333,0,0,0-4.054.508,12.811,12.811,0,0,0-2.979,3.02" transform="translate(-342.756 -281.73)" fill="#f49600"/>
        <path id="Caminho_42" data-name="Caminho 42" d="M562.183,511.315c-1.6-1.8-4.817-1.182-6.262.74s-1.453,4.591-.853,6.919,1.727,4.492,2.379,6.807c1.1,3.912,1.008,8.526,3.953,11.326a6.883,6.883,0,0,0,11.62-5.272c-.17-4.116-3.954-7.978-2.54-11.847.424-1.162,1.285-2.127,1.7-3.292a4.7,4.7,0,0,0-7.023-5.5" transform="translate(-341.354 -281.735)" fill="#f49600"/>
        <path id="Caminho_43" data-name="Caminho 43" d="M702.9,483.711c-2.108-2.685-4.842-5.145-8.205-5.731s-7.319,1.382-7.894,4.747c-.483,2.83,1.406,5.469,2.055,8.266,1.158,4.988-1.667,9.923-4.112,14.422s-4.616,10.008-2.264,14.557a8.417,8.417,0,0,0,13.836,1.65c2.2-2.541,2.83-6.317,5.479-8.391,3.52-2.756,9.229-1.408,12.414-4.543,2.29-2.253,2.277-6.1.844-8.972-1.457-2.924-4.171-4.666-6.059-7.226C706.887,489.638,705.1,486.517,702.9,483.711Z" transform="translate(-344.458 -280.943)" fill="#f49600"/>
        <path id="Caminho_44" data-name="Caminho 44" d="M672.253,462.317c-1.181-1.6-2.684-3.367-4.673-3.311-1.918.055-3.4,1.949-3.583,3.859a9.34,9.34,0,0,0,1.585,5.436,11.982,11.982,0,0,0,3.716,4.243,5.7,5.7,0,0,0,5.421.568C680.165,470.478,674.2,464.959,672.253,462.317Z" transform="translate(-344.03 -280.481)" fill="#f49600"/>
        <path id="Caminho_45" data-name="Caminho 45" d="M737.251,442.365c-3.044,1.054-5.235,3.806-6.49,6.772a11.555,11.555,0,0,0-1.034,5.665,6.546,6.546,0,0,0,2.813,4.87,4.612,4.612,0,0,0,5.411-.293c2.3-2.088,1.5-6.159,3.631-8.419a16.359,16.359,0,0,1,3.309-2.145C750.947,444.917,740.931,441.092,737.251,442.365Z" transform="translate(-345.639 -280.067)" fill="#f49600"/>
        <path id="Caminho_46" data-name="Caminho 46" d="M805.31,483.766c-2.564,2.069-3.039,5.744-3.128,9.037s-.072,6.871-2.085,9.479c-1.174,1.523-2.9,2.505-4.337,3.783s-2.658,3.13-2.27,5.014c.444,2.151,2.879,3.4,5.073,3.3s4.2-1.2,6.143-2.221,4.027-2.022,6.221-1.906c2.271.121,4.281,1.413,6.331,2.4s4.532,1.673,6.539.6c2.091-1.115,2.888-3.818,2.554-6.164-.493-3.465-2.776-6.354-3.9-9.615-.749-2.186-.872-4.565-1.735-6.707C818.6,485.49,810.847,479.3,805.31,483.766Z" transform="translate(-347.199 -281.049)" fill="#f49600"/>
        <path id="Caminho_47" data-name="Caminho 47" d="M767.61,579.06c-.659-2.854-1.542-5.761-3.438-8s-5.036-3.641-7.82-2.729c-3.745,1.226-5.174,5.8-5.235,9.742s.651,8.093-1,11.669c-1.325,2.864-3.975,4.887-5.654,7.559s-1.95,6.854.789,8.421c2.451,1.4,5.591-.295,7.345-2.505,2.288-2.885,3.543-6.805,6.768-8.581,1.932-1.064,4.239-1.142,6.357-1.765C772.859,590.776,768.766,584.066,767.61,579.06Z" transform="translate(-345.969 -283.15)" fill="#f49600"/>
        <path id="Caminho_48" data-name="Caminho 48" d="M884.582,555.157c-1.472-2.144-4.58-3.431-6.747-1.991-1.714,1.14-2.176,3.46-2.111,5.518s.5,4.157-.023,6.148c-1.085,4.123-5.877,6.441-6.974,10.561a6.58,6.58,0,0,0,7.106,8.23c3.3-.378,6.066-3.2,9.389-3.105,3.288.094,6.175,3.059,9.418,2.508,3.156-.537,4.851-4.542,3.715-7.534-1.72-4.531-6.237-3.882-9.239-6.582C885.478,565.639,887.291,559.1,884.582,555.157Z" transform="translate(-349.038 -282.771)" fill="#f49600"/>
        <path id="Caminho_49" data-name="Caminho 49" d="M904.619,593.781a6.25,6.25,0,0,0,.2,2.692,19.423,19.423,0,0,0,1.962,5.352,3.6,3.6,0,0,0,2.309,1.973,2.534,2.534,0,0,0,2.247-.924,4.23,4.23,0,0,0,.9-2.331c.238-2.32-1.035-4.7-2.452-6.48C908.47,592.407,905.319,590.432,904.619,593.781Z" transform="translate(-349.92 -283.736)" fill="#f49600"/>
        <path id="Caminho_50" data-name="Caminho 50" d="M951.446,647.026a11.4,11.4,0,0,0-8.669,1.314c-2.486,1.685-3.95,5.025-2.893,7.836.634,1.688,2.054,3.019,2.531,4.757.972,3.547-2.293,7.312-1.121,10.8.771,2.292,3.215,3.574,5.557,4.174,2.917.747,6.349.666,8.531-1.409,2.338-2.223,2.44-5.882,2.1-9.092s-.915-6.637.536-9.519c.981-1.948,3.307-4.111,1.169-5.81C957.243,648.531,953.843,647.525,951.446,647.026Z" transform="translate(-350.777 -285.076)" fill="#f49600"/>
        <path id="Caminho_51" data-name="Caminho 51" d="M877.546,685.574c.757-4.163,1.517-8.413.928-12.6s-2.772-8.388-6.543-10.308c-4.317-2.2-10.154-1.246-13.554-4.7-2.009-2.04-3.027-5.486-5.844-6a4.755,4.755,0,0,0-4.659,2.561,13.87,13.87,0,0,0-1.4,5.445c-.761,6.571-1.828,13.819-6.895,18.071-1.449,1.216-3.15,2.105-4.6,3.323a6.582,6.582,0,0,0-2.669,4.8" transform="translate(-348.151 -285.204)" fill="#f49600"/>
        <path id="Caminho_52" data-name="Caminho 52" d="M545.758,689.211c1.018-5.982,2.579-12.763,7.9-15.677,3.574-1.957,7.988-1.6,11.772-3.117a12.752,12.752,0,0,0,6.793-6.479,25.749,25.749,0,0,1,1.922-4.228c.888-1.272,2.5-2.237,3.971-1.745,1.343.449,2.06,1.9,2.445,3.262.752,2.661.782,5.467,1.209,8.2s1.345,5.551,3.437,7.361c1.928,1.668,4.553,2.235,6.79,3.457s4.247,3.739,3.391,6.141" transform="translate(-341.136 -285.349)" fill="#f49600"/>
        <path id="Caminho_53" data-name="Caminho 53" d="M447.19,615.425c3.749,1.926,4.778,6.808,4.674,11.021s-.865,8.657.914,12.477c1.429,3.068,4.268,5.2,6.413,7.817,2.468,3.011,4.06,7.012,3.224,10.815s-4.664,7.017-8.484,6.262c-2.937-.58-5.269-3.216-8.261-3.343-2.836-.12-5.177,2.019-7.607,3.486a17.6,17.6,0,0,1-24.932-7.391,261.686,261.686,0,0,0,24.271-33.8" transform="translate(-337.888 -284.31)" fill="#f49600"/>
        <path id="Caminho_54" data-name="Caminho 54" d="M612.822,557.818a6.745,6.745,0,0,0,3.8,1.394,3.2,3.2,0,0,0,2.585-.36,2.16,2.16,0,0,0,.156-2.741,6.2,6.2,0,0,0-2.329-1.84,10.669,10.669,0,0,1-2.612-2.243c-.669-.675-1.031-1.082-1.964-.329C610.845,553.006,611.5,556.556,612.822,557.818Z" transform="translate(-342.745 -282.74)" fill="#fff"/>
        <path id="Caminho_55" data-name="Caminho 55" d="M610.243,541.228a1.429,1.429,0,0,0-.672-.4.988.988,0,0,0-.961.441,1.621,1.621,0,0,0-.231,1.071,4.809,4.809,0,0,0,.732,1.848L610.6,546.8a1.293,1.293,0,0,0,.438.524.893.893,0,0,0,1.173-.6,3.31,3.31,0,0,0-.088-1.539,7.914,7.914,0,0,0-.289-1.481A6.009,6.009,0,0,0,610.243,541.228Z" transform="translate(-342.668 -282.483)" fill="#fff"/>
        <path id="Caminho_56" data-name="Caminho 56" d="M759.282,561.664a10.276,10.276,0,0,0-1.615,4.942c.05,1.753,1.349,3.6,3.1,3.595,1.558-.007,2.75-1.391,3.464-2.775a6.9,6.9,0,0,0,.757-5.229c-.572-1.717-2.507-3.043-4.217-2.45" transform="translate(-346.324 -282.944)" fill="#fff"/>
        <path id="Caminho_57" data-name="Caminho 57" d="M880.569,603.209c.73-1.258,2.246-4.533,1.036-5.885-.918-1.026-2.342-.059-3.127.669a5.173,5.173,0,0,0-1.768,4.457C877.068,604.9,879.275,605.44,880.569,603.209Z" transform="translate(-349.237 -283.856)" fill="#fff"/>
        <path id="Caminho_58" data-name="Caminho 58" d="M876.325,558.258a2.569,2.569,0,0,1,2.391,2.371,2.286,2.286,0,0,1-2.352,2.281c-.992-.092-2.776-1.495-2.806-2.591C873.527,559.09,875.285,558.2,876.325,558.258Z" transform="translate(-349.161 -282.911)" fill="#fff"/>
        <path id="Caminho_59" data-name="Caminho 59" d="M769.773,414.894a2.508,2.508,0,0,1,.009,2.341,1.73,1.73,0,0,1-1.717.538,4.338,4.338,0,0,1-1.672-.864,19.815,19.815,0,0,1-7.317-10.937c-1.174-4.636,4.112-1.964,5.542-.058A36.791,36.791,0,0,1,769.773,414.894Z" transform="translate(-346.354 -279.119)" fill="#fff"/>
      </g>
      <g id="Layer_4" transform="translate(327.284 271.137)">
        <g id="Grupo_1" data-name="Grupo 1">
          <path id="Caminho_60" data-name="Caminho 60" d="M1033.184,674.761,716.047,283.145a32.39,32.39,0,0,0-50.345,0L566.121,406.113v-55.8a22.185,22.185,0,0,0-22.16-22.16h-76.4a22.185,22.185,0,0,0-22.16,22.16V555.182L348.57,674.762a24.64,24.64,0,0,0-21.286,24.368v64.018a24.65,24.65,0,0,0,24.622,24.622h8.208v275.772H341.237a13.969,13.969,0,0,0-13.953,13.953v16.415a13.969,13.969,0,0,0,13.953,13.953h699.278a13.969,13.969,0,0,0,13.953-13.953V1077.5a13.97,13.97,0,0,0-13.953-13.953h-18.877V787.771h8.208a24.649,24.649,0,0,0,24.622-24.622V699.13A24.638,24.638,0,0,0,1033.184,674.761ZM538.215,341.284h5.745a9.039,9.039,0,0,1,9.028,9.028v13.456H538.215Zm-46.894,0h40.328v22.485H491.321V341.284Zm-32.784,9.028a9.039,9.039,0,0,1,9.028-9.028h17.19v22.485H458.537Zm0,20.023h94.452v17.744H458.537V370.335Zm42.985,42.053V394.645h51.466v17.743Zm51.467,6.566v3.376L541.355,436.7H527.388V418.954Zm-94.452-24.309h36.419v17.743H458.537Zm0,24.309h62.285V436.7H458.537V418.954Zm0,24.309h77.5l-14.369,17.744H458.536V443.263Zm57.814,24.31-14.368,17.743h-13.79V467.573Zm-57.814,0h23.09v17.743h-23.09Zm0,24.309h38.128L482.3,509.624h-23.76Zm0,24.309H476.98l-18.443,22.774Zm26.112,11.4q1.324,1.563,2.722,3.06a29.584,29.584,0,0,0,4.546,3.861c2.744,1.935,6.511,3.737,9.875,3.807-1.116-3.174-3.406-6.259-5.308-8.713-1.915-2.433-3.517-4.186-3.517-4.186-1.182-1.259-2.3-2.574-3.393-3.912l186.333-230.1a19.261,19.261,0,0,1,29.936,0L795.3,401.877c-.161.167-.314.341-.477.506,0,0-1.5,1.56-3.252,3.783a26.457,26.457,0,0,0-4.687,8.14c3.161.065,6.636-1.485,9.182-3.168a27.084,27.084,0,0,0,4.094-3.26l114.348,141.2c-1.29,1.534-2.607,3.044-3.985,4.5,0,0-2.028,2.194-4.514,5.158-2.469,2.989-5.479,6.685-7.1,10.265,3.9-.5,8.372-2.9,11.67-5.36a42.314,42.314,0,0,0,5.517-4.805q1.709-1.8,3.326-3.69L1016.076,674.5H1001.3l-64.94-80.192a4.924,4.924,0,1,0-7.653,6.2l59.92,73.993h-595.5l90.7-112a4.925,4.925,0,1,0-7.654-6.2L380.447,674.5H365.67Zm555.861,549.086a.822.822,0,0,1,.82.82v16.415a.822.822,0,0,1-.82.82H341.236a.822.822,0,0,1-.82-.82v-16.415a.822.822,0,0,1,.82-.82H1040.51ZM412.641,816.021v38.6h-39.4v-38.6Zm-39.4-6.566V787.771h39.4v21.684Zm39.4,51.735v38.6h-39.4v-38.6Zm0,45.166v38.6h-39.4v-38.6Zm0,45.168v38.6h-39.4v-38.6Zm0,45.166v38.6h-39.4v-38.6h39.4Zm0,45.166v21.683h-39.4v-21.683Zm13.132,21.686V787.771h530.2v275.772h-530.2ZM1008.5,816.021v38.6h-39.4v-38.6Zm-39.394-6.566V787.771h39.4v21.684Zm39.394,51.735v38.6h-39.4v-38.6Zm0,45.166v38.6h-39.4v-38.6Zm0,45.168v38.6h-39.4v-38.6Zm0,45.166v38.6h-39.4v-38.6h39.4Zm0,45.166v21.683h-39.4v-21.683Zm32.836-294.576H690.875a4.924,4.924,0,0,0,0,9.849h350.459v6.018a11.5,11.5,0,0,1-11.491,11.491H351.9a11.5,11.5,0,0,1-11.491-11.491V757.13H601.64a4.924,4.924,0,0,0,0-9.849H340.415V699.129a11.5,11.5,0,0,1,11.491-11.49h677.938a11.5,11.5,0,0,1,11.491,11.49v48.151Z" transform="translate(-327.284 -271.137)" fill="#42161a"/>
          <path id="Caminho_61" data-name="Caminho 61" d="M901.059,555.83a4.924,4.924,0,1,0,7.653-6.2L815.244,434.209a4.924,4.924,0,1,0-7.653,6.2Z" transform="translate(-339.017 -275.085)" fill="#42161a"/>
          <path id="Caminho_62" data-name="Caminho 62" d="M643.676,367.424a4.926,4.926,0,0,0,6.926-.728l47.974-59.242,70.968,87.635a4.924,4.924,0,1,0,7.653-6.2l-71.79-88.652a8.834,8.834,0,0,0-13.678.021L642.948,360.5A4.927,4.927,0,0,0,643.676,367.424Z" transform="translate(-334.986 -271.77)" fill="#42161a"/>
          <path id="Caminho_63" data-name="Caminho 63" d="M527.139,510.07a4.926,4.926,0,0,0,6.927-.728l90.686-111.986a4.925,4.925,0,1,0-7.654-6.2L526.413,503.143A4.926,4.926,0,0,0,527.139,510.07Z" transform="translate(-332.132 -274.031)" fill="#42161a"/>
          <path id="Caminho_64" data-name="Caminho 64" d="M728.5,393.645a29.234,29.234,0,1,0-29.234,29.233A29.267,29.267,0,0,0,728.5,393.645ZM699.266,413.03a19.385,19.385,0,1,1,19.385-19.384A19.406,19.406,0,0,1,699.266,413.03Z" transform="translate(-335.676 -273.421)" fill="#42161a"/>
          <path id="Caminho_65" data-name="Caminho 65" d="M584.309,579.936a29.234,29.234,0,1,0-29.234,29.234A29.266,29.266,0,0,0,584.309,579.936Zm-29.234,19.385a19.385,19.385,0,1,1,19.385-19.385A19.407,19.407,0,0,1,555.074,599.322Z" transform="translate(-332.145 -277.982)" fill="#42161a"/>
          <path id="Caminho_66" data-name="Caminho 66" d="M775.937,607.091a29.233,29.233,0,1,0,29.232,29.233A29.266,29.266,0,0,0,775.937,607.091Zm0,48.619a19.384,19.384,0,1,1,19.384-19.385A19.407,19.407,0,0,1,775.937,655.71Z" transform="translate(-337.553 -279.362)" fill="#42161a"/>
          <path id="Caminho_67" data-name="Caminho 67" d="M621.077,470.991a27.284,27.284,0,0,0-13.353,10.615,25.034,25.034,0,0,0-2.174,23.976c2.773,6.807,6.646,10.545,11.512,11.11a11.867,11.867,0,0,0,7.419-1.745l2.036,5.348a4.917,4.917,0,0,0,6.354,2.851l16.11-6.131a4.923,4.923,0,0,0,2.85-6.354l-2.036-5.349a11.866,11.866,0,0,0,6.7-3.629c3.259-3.657,3.667-9.025,1.211-15.954a25.043,25.043,0,0,0-17.567-16.462,27.293,27.293,0,0,0-17.032.951Zm5.535,8.43h0a17.5,17.5,0,0,1,10.92-.658,15.366,15.366,0,0,1,10.892,10.256c1.436,4.051,1.008,5.783.721,6.109-.664.753-3.511.854-5.4.445a4.924,4.924,0,0,0-5.7,6.552l2.831,7.437-6.9,2.627-2.831-7.437a4.924,4.924,0,0,0-3.96-3.119,4.794,4.794,0,0,0-.645-.043,4.954,4.954,0,0,0-4,2.039c-1.151,1.584-3.345,3.418-4.343,3.279-.43-.052-1.9-1.06-3.524-5.042a15.365,15.365,0,0,1,1.316-14.9,17.506,17.506,0,0,1,8.593-6.769Z" transform="translate(-334.046 -275.965)" fill="#42161a"/>
          <path id="Caminho_68" data-name="Caminho 68" d="M788.065,565.251a4.928,4.928,0,0,0,1.5,3.459L801.946,580.7a4.927,4.927,0,0,0,6.964-.112l3.98-4.111a11.865,11.865,0,0,0,6.127,4.532c4.7,1.4,9.729-.5,14.964-5.664a25.048,25.048,0,0,0,7.466-22.89,27.29,27.29,0,0,0-8.081-15.022l-1.562-1.513a27.3,27.3,0,0,0-15.274-7.6,25.025,25.025,0,0,0-22.636,8.193c-4.992,5.4-6.736,10.49-5.184,15.136a11.87,11.87,0,0,0,4.724,5.979l-3.982,4.112A4.917,4.917,0,0,0,788.065,565.251Zm13.06-22.045a15.375,15.375,0,0,1,14.053-5.123A17.516,17.516,0,0,1,824.952,543l1.562,1.512h0a17.507,17.507,0,0,1,5.224,9.611,15.374,15.374,0,0,1-4.673,14.212c-3.058,3.016-4.8,3.368-5.226,3.242-.964-.281-2.263-2.816-2.691-4.7a4.925,4.925,0,0,0-8.352-2.39l-5.537,5.718-5.306-5.139,5.537-5.718a4.925,4.925,0,0,0-2.656-8.271c-1.648-.3-4.445-1.524-4.782-2.535C797.914,548.128,798.2,546.37,801.125,543.207Z" transform="translate(-338.565 -277.427)" fill="#42161a"/>
          <path id="Caminho_69" data-name="Caminho 69" d="M656.879,615.535l-2.019-.81a27.293,27.293,0,0,0-17.012-1.245A25.044,25.044,0,0,0,620,629.636c-2.575,6.886-2.26,12.259.935,15.972a11.874,11.874,0,0,0,6.639,3.745l-2.128,5.312a4.925,4.925,0,0,0,2.739,6.4l16,6.41a4.924,4.924,0,0,0,6.4-2.74l2.129-5.313A11.872,11.872,0,0,0,660.1,661.3c4.876-.48,8.813-4.15,11.7-10.908a25.043,25.043,0,0,0-1.758-24.01A27.3,27.3,0,0,0,656.879,615.535Zm5.87,30.982c-1.691,3.953-3.179,4.935-3.609,4.98-1.045.072-3.162-1.751-4.271-3.332a4.924,4.924,0,0,0-8.634.95l-2.959,7.388-6.858-2.748,2.959-7.387a4.924,4.924,0,0,0-5.59-6.649c-1.639.348-4.691.272-5.389-.536-.282-.329-.684-2.063.825-6.1a15.367,15.367,0,0,1,11.066-10.064,17.531,17.531,0,0,1,10.907.847l2.019.809a17.524,17.524,0,0,1,8.475,6.917A15.374,15.374,0,0,1,662.749,646.517Z" transform="translate(-334.409 -279.499)" fill="#42161a"/>
          <path id="Caminho_70" data-name="Caminho 70" d="M766.779,458.961a11.49,11.49,0,0,0-13.958,8.322l-5.635,22.28a11.491,11.491,0,0,0,8.323,13.957,11.6,11.6,0,0,0,2.838.355,11.5,11.5,0,0,0,11.121-8.678l5.633-22.28A11.505,11.505,0,0,0,766.779,458.961Zm.364,11.945-5.633,22.279a3.283,3.283,0,1,1-6.365-1.61l5.635-22.28a3.282,3.282,0,1,1,6.363,1.611Z" transform="translate(-337.556 -275.727)" fill="#42161a"/>
          <path id="Caminho_71" data-name="Caminho 71" d="M898.354,613.368a11.49,11.49,0,1,0-21.132,9.031l9.031,21.132a11.49,11.49,0,1,0,21.131-9.031Zm1.513,26.87a3.284,3.284,0,0,1-6.066.068l-9.031-21.134a3.282,3.282,0,0,1,6.036-2.579l9.031,21.134A3.253,3.253,0,0,1,899.867,640.237Z" transform="translate(-340.725 -279.345)" fill="#42161a"/>
          <path id="Caminho_72" data-name="Caminho 72" d="M495.828,652.256l19.9,11.491a11.5,11.5,0,0,0,15.7-4.206h0a11.5,11.5,0,0,0-4.206-15.7l-19.9-11.491a11.491,11.491,0,0,0-11.491,19.9Zm2.9-11.592a3.281,3.281,0,0,1,4.485-1.2l19.9,11.491a3.283,3.283,0,1,1-3.283,5.687l-19.9-11.491A3.287,3.287,0,0,1,498.729,640.664Z" transform="translate(-331.27 -279.943)" fill="#42161a"/>
          <path id="Caminho_73" data-name="Caminho 73" d="M707.56,587.156a11.545,11.545,0,0,0,2.993.4,11.5,11.5,0,0,0,9.933-17.24l-11.491-19.9a11.491,11.491,0,0,0-19.9,11.491l11.492,19.9A11.407,11.407,0,0,0,707.56,587.156ZM696.2,557.8a3.283,3.283,0,0,1,5.686-3.283l11.491,19.9a3.283,3.283,0,1,1-5.686,3.284Z" transform="translate(-336.105 -277.834)" fill="#42161a"/>
          <path id="Caminho_74" data-name="Caminho 74" d="M655.14,759.231h-15a4.924,4.924,0,0,0,0,9.849h15a4.924,4.924,0,0,0,0-9.849Z" transform="translate(-334.823 -283.087)" fill="#42161a"/>
          <path id="Caminho_75" data-name="Caminho 75" d="M692.151,456.443a7.2,7.2,0,0,0,2.539-1.574,10.238,10.238,0,0,0,2.551-3.974,11.71,11.71,0,0,0,.554-2.078c.109-.661.164-1.226.209-1.779a19.812,19.812,0,0,1,.647-4.957,4.881,4.881,0,0,1,2.363-2.545,35.4,35.4,0,0,1,3.624-1.682,21.175,21.175,0,0,0,3.018-1.543,9.893,9.893,0,0,0,1.737-1.414l.518-.587-.7.375a10.268,10.268,0,0,1-2.036.719,24.249,24.249,0,0,1-3.216.486,26,26,0,0,0-4.381.693,8.234,8.234,0,0,0-5.012,3.644,20.889,20.889,0,0,0-2.075,6.264,8,8,0,0,1-.834,2.316,4.187,4.187,0,0,1-1.235,1.454c-.414.216-.391.1-.471.077a2.15,2.15,0,0,1-.691-.763,6.368,6.368,0,0,1-.685-2.175c-.169-.963-.267-2.1-.474-3.4a14,14,0,0,0-1.245-4.076,8.9,8.9,0,0,0-1.349-1.972,6.937,6.937,0,0,0-2.028-1.555,6.336,6.336,0,0,0-4.936-.449,5.217,5.217,0,0,0-2.043,1.321c-.382.434-.522.528-.436.614a.471.471,0,0,1,.018.06c-.006.028-.028.049-.081.066a.953.953,0,0,1-.563-.183,2.522,2.522,0,0,1-1-1.267,25.955,25.955,0,0,1-.474-4.153,4.688,4.688,0,0,0-1.416-3.033,2.06,2.06,0,0,0-1.623-.656,1.441,1.441,0,0,0-.468.158c-.007.046.7-.1,1.266,1.107a3.271,3.271,0,0,1,.273,1.053,2.8,2.8,0,0,1,0,.585c-.024.228-.055.481-.109.755a18.36,18.36,0,0,0-.69,4.727,6.039,6.039,0,0,0,1.587,3.578,5.038,5.038,0,0,0,2.036,1.352,4.349,4.349,0,0,0,3.1-.1,9.594,9.594,0,0,0,1.766-1.108c.241-.14.141-.022.242-.029a1.961,1.961,0,0,1,.815.419c.492.366,1.039,1.74,1.143,3.74.082,1.014.107,2.229.3,3.637a14.2,14.2,0,0,0,.5,2.243,9.813,9.813,0,0,0,1.135,2.421,7.585,7.585,0,0,0,4.983,3.469A6.779,6.779,0,0,0,692.151,456.443Z" transform="translate(-335.686 -274.995)" fill="#42161a"/>
          <path id="Caminho_76" data-name="Caminho 76" d="M751.735,530.276a6.273,6.273,0,0,0,4.147-.826,6.615,6.615,0,0,0,2.459-2.724,10.045,10.045,0,0,0,.912-4.978c-.061-1.3-.18-2.285-.156-3.067a3.719,3.719,0,0,1,.363-1.781,2.845,2.845,0,0,1,.894-1.026,1.577,1.577,0,0,1,1.049-.3,1.584,1.584,0,0,0-1.344-.681,3.638,3.638,0,0,0-2.147.622,5.579,5.579,0,0,0-2.042,2.553,25.8,25.8,0,0,0-1.1,3.475,5.562,5.562,0,0,1-1.275,2.5c-.256.226-.451.265-.547.218s-.074-.114-.191-.187a3.986,3.986,0,0,1-1.3-1.389,6.531,6.531,0,0,1-.526-1.358c-.169-.575-.32-1.228-.479-1.947a20.365,20.365,0,0,0-1.5-4.758,7.58,7.58,0,0,0-1.841-2.4,5.124,5.124,0,0,0-2.871-1.21,14.2,14.2,0,0,0-1.606.012,2.348,2.348,0,0,1-1.081-.279,7.025,7.025,0,0,1-2.825-3.68c-.47-1.171-.735-1.826-.735-1.826a16.793,16.793,0,0,0-.286,1.941,10.284,10.284,0,0,0,.057,2.5,7.067,7.067,0,0,0,1.545,3.461,5.838,5.838,0,0,0,2.05,1.564c.881.389,1.6.521,1.911.689s.125.18.249.368a5.3,5.3,0,0,1,.294.93,35.418,35.418,0,0,1,.44,3.738,13.8,13.8,0,0,0,1.6,5.681A8.5,8.5,0,0,0,751.735,530.276Z" transform="translate(-337.331 -276.869)" fill="#42161a"/>
          <path id="Caminho_77" data-name="Caminho 77" d="M619.922,587.513a7.393,7.393,0,0,0,3.933.885,7.242,7.242,0,0,0,3.674-1.189,8.815,8.815,0,0,0,2.438-2.392,10.691,10.691,0,0,0,1.84-5.612c.112-3.629-.922-6.431-1.39-8.924a12.814,12.814,0,0,1,.053-6.658,5.931,5.931,0,0,1,3.543-3.7,5.062,5.062,0,0,1,3.666-.108,4.21,4.21,0,0,1,.94.5l.3.216-.259-.274a4.2,4.2,0,0,0-.873-.7,5.681,5.681,0,0,0-4.1-.61,7.44,7.44,0,0,0-2.769,1.166,7.646,7.646,0,0,0-2.382,2.746,15.135,15.135,0,0,0-1.364,7.966c.146,2.812.63,5.661.15,8.1a6,6,0,0,1-1.481,2.977,2.5,2.5,0,0,1-2.2.958,3.06,3.06,0,0,1-2.045-1.6,11.117,11.117,0,0,1-1.464-3.991c-.123-.686-.2-1.611-.3-2.576s-.2-1.974-.368-3.044a15.524,15.524,0,0,0-2.579-6.927,10.4,10.4,0,0,0-3.2-2.846,21.06,21.06,0,0,0-3.14-1.391,14.923,14.923,0,0,1-2.125-.912,2.585,2.585,0,0,1-.946-.823,3.557,3.557,0,0,1-.434-1.316,12.671,12.671,0,0,1-.036-2.142,45.962,45.962,0,0,0,.235-5.594,9.952,9.952,0,0,0-2.441-6.261,14.06,14.06,0,0,0-4.677-3.219c-1.471-.686-2.8-1.193-3.921-1.754a10.709,10.709,0,0,1-2.761-1.877,11.838,11.838,0,0,1-3.042-5.05,12.809,12.809,0,0,1-.489-4.618,11.47,11.47,0,0,1,.621-2.923l.4-.977-.665.869a11.168,11.168,0,0,0-1.381,2.916,13.164,13.164,0,0,0-.487,5.3,13.735,13.735,0,0,0,2.755,6.856,14.461,14.461,0,0,0,3.338,3.014c1.256.839,2.583,1.568,3.779,2.341a9.049,9.049,0,0,1,2.813,2.534,5.359,5.359,0,0,1,.626,3.305c-.081,1.412-.45,3.045-.675,5.044a14.447,14.447,0,0,0-.03,3.368,8.52,8.52,0,0,0,1.425,3.918,8.886,8.886,0,0,0,3.15,2.839,25.185,25.185,0,0,0,2.994,1.361,12.261,12.261,0,0,1,2.045.985,4.125,4.125,0,0,1,1.121,1.144,11.235,11.235,0,0,1,1.372,4.248c.147.87.268,1.79.4,2.747l.212,1.471c.092.566.2,1.124.339,1.669a15.783,15.783,0,0,0,2.953,6.133A9.665,9.665,0,0,0,619.922,587.513Z" transform="translate(-333.675 -277.304)" fill="#42161a"/>
          <path id="Caminho_78" data-name="Caminho 78" d="M875.061,590.942a6.419,6.419,0,0,0-2.16-.866,8.189,8.189,0,0,0-3.7.128,8.853,8.853,0,0,0-4.288,2.635,11.884,11.884,0,0,0-2.729,5.339,14.338,14.338,0,0,0-.38,3.264c-.012,1.086.06,2.127.134,3.121a15,15,0,0,1-.1,4.995,2.648,2.648,0,0,1-.74,1.242,2.578,2.578,0,0,1-1.239.594,2.076,2.076,0,0,1-1.238-.144,2.666,2.666,0,0,1-1.056-.87,2.624,2.624,0,0,1-.456-1.387,12.885,12.885,0,0,1,.1-2.418,25.349,25.349,0,0,0,.217-3.174,10.416,10.416,0,0,0-.627-3.465,6.6,6.6,0,0,0-2.261-3.076,5.8,5.8,0,0,0-1.635-.823,10.5,10.5,0,0,0-1.272-.3,5.6,5.6,0,0,1-1.292-.309,1.491,1.491,0,0,1-.684-.627,5.244,5.244,0,0,1-.56-2.242,14.883,14.883,0,0,1,.01-1.736c.027-.41.042-.624.042-.624l-.319.572a11.789,11.789,0,0,0-.757,1.726,6.286,6.286,0,0,0-.34,3.087,3.841,3.841,0,0,0,1.006,1.982,6.818,6.818,0,0,0,2.057,1.349,2.9,2.9,0,0,1,1.339,1.018,3.079,3.079,0,0,1,.412,1.443,7.453,7.453,0,0,1-.163,1.986c-.143.661-.411,1.529-.669,2.5a14.635,14.635,0,0,0-.557,3.524,8.408,8.408,0,0,0,1.2,4.525,8.612,8.612,0,0,0,3.724,3.32,8.267,8.267,0,0,0,5.272.564,8.61,8.61,0,0,0,4.524-2.592,8.942,8.942,0,0,0,2.131-4.429,17.66,17.66,0,0,0-.6-7.126,19.235,19.235,0,0,1-.77-4.86,9.041,9.041,0,0,1,.932-4.006,6.927,6.927,0,0,1,5.277-3.672,6.214,6.214,0,0,1,2.108.1,7.18,7.18,0,0,1,.76.211A5.775,5.775,0,0,0,875.061,590.942Z" transform="translate(-340.025 -278.942)" fill="#42161a"/>
          <path id="Caminho_79" data-name="Caminho 79" d="M723.451,636.146l-.419-.566s.058.239.168.694a6.735,6.735,0,0,1,.059,1.924,10.729,10.729,0,0,1-2.833,5.543c-.843.953-1.913,1.966-3.049,3.193a15.866,15.866,0,0,0-3.257,4.9,16.252,16.252,0,0,0-.813,6.681c.041,1.018.1,1.963.1,2.82a7.427,7.427,0,0,1-.233,2.123,5.487,5.487,0,0,1-.713,1.647,2.165,2.165,0,0,1-.646.662.84.84,0,0,1-.7.088,2.787,2.787,0,0,1-1.2-.808c-1.716-1.58-1.808-5.171-2.44-8.028a8.741,8.741,0,0,0-3.555-5.87,3.541,3.541,0,0,0-2.143-.566,3.858,3.858,0,0,1,1.432,1.307,8.154,8.154,0,0,1,.99,5.374c-.094,1.284-.34,2.778-.388,4.637a13.559,13.559,0,0,0,.259,3.09,10.313,10.313,0,0,0,1.408,3.377,8.356,8.356,0,0,0,3.146,2.908,7.007,7.007,0,0,0,5.118.483,7.842,7.842,0,0,0,4.049-2.937,10.967,10.967,0,0,0,1.813-3.965,19.485,19.485,0,0,0-.05-7.132,12.666,12.666,0,0,1-.074-4.438c.552-2.548,2.652-5.24,3.863-8.018a11.366,11.366,0,0,0,.938-7.229A6.807,6.807,0,0,0,723.451,636.146Z" transform="translate(-336.453 -280.06)" fill="#42161a"/>
          <path id="Caminho_80" data-name="Caminho 80" d="M860.446,658.951a12.1,12.1,0,0,0-1.945-2.044c-.5-.416-.8-.615-.8-.615s-.032.41-.088,1.129-.085,1.709-.192,2.807a13.018,13.018,0,0,1-.672,3.243,7.645,7.645,0,0,1-1.234,2.241,5.487,5.487,0,0,1-1.269,1.251,2.5,2.5,0,0,1-.86.378,1.8,1.8,0,0,1-1.152-.3,3.109,3.109,0,0,1-1.434-2.067,2.934,2.934,0,0,1-.031-.93c.034-.234.052-.36.052-.36l-.285.2a3.134,3.134,0,0,0-.706.752,4.679,4.679,0,0,0-.573,3.795,5.225,5.225,0,0,0,1.491,2.546,5.978,5.978,0,0,0,3.238,1.525,7.294,7.294,0,0,0,6.8-2.863,8.433,8.433,0,0,0,1.5-6.414A9.722,9.722,0,0,0,860.446,658.951Z" transform="translate(-340.06 -280.567)" fill="#42161a"/>
          <path id="Caminho_81" data-name="Caminho 81" d="M581.5,646.941c-.186-.688-.325-1.055-.325-1.055s-.272.36-.7,1-1.016,1.563-1.733,2.536a9.825,9.825,0,0,1-2.5,2.511,5.67,5.67,0,0,1-2.36.608,1.2,1.2,0,0,0-.493.059c-.146.049-.419-.027-.7-.334a4.7,4.7,0,0,1-.976-2.967,25.455,25.455,0,0,1,.163-3.082c.071-.783.085-1.24.085-1.24s-.346.218-.939.673a11.068,11.068,0,0,0-2.338,2.386,7.6,7.6,0,0,0-1.308,5.793,6.463,6.463,0,0,0,2.234,3.793,6.748,6.748,0,0,0,4.575,1.476,8.078,8.078,0,0,0,6.58-3.962,9.563,9.563,0,0,0,1.213-5.123A13.621,13.621,0,0,0,581.5,646.941Z" transform="translate(-333.159 -280.29)" fill="#42161a"/>
          <path id="Caminho_82" data-name="Caminho 82" d="M461.645,658.08c-.574.368-1.365.923-2.25,1.557s-1.869,1.324-2.822,1.878a20.6,20.6,0,0,1-2.646,1.261,21.243,21.243,0,0,1-2.055.771,3.355,3.355,0,0,1-2.4-.5,3.831,3.831,0,0,1-1.632-1.889,3.982,3.982,0,0,1-.217-.849c-.03-.219-.047-.336-.047-.336l-.215.23a3.7,3.7,0,0,0-.533.773,5.083,5.083,0,0,0-.308,3.509,6.492,6.492,0,0,0,3.414,4.255,7.97,7.97,0,0,0,6.605.061,9.448,9.448,0,0,0,4.373-3.844,11.578,11.578,0,0,0,1.44-3.9,15.158,15.158,0,0,0,.239-2.59c0-.608-.021-.947-.021-.947S462.219,657.709,461.645,658.08Z" transform="translate(-330.199 -280.597)" fill="#42161a"/>
          <path id="Caminho_83" data-name="Caminho 83" d="M748.169,434.956a4.437,4.437,0,0,1-1.62.632,3.677,3.677,0,0,1-1.985-.415,4.86,4.86,0,0,1-1.444-1.1,4.7,4.7,0,0,1-.475-.61l-.157.2a3.005,3.005,0,0,0-.367.65,4.5,4.5,0,0,0-.135,2.9,5.9,5.9,0,0,0,3.111,3.725,6.978,6.978,0,0,0,9.867-6.138,5.92,5.92,0,0,0-2-4.5,4.577,4.577,0,0,0-2.711-1.162,2.721,2.721,0,0,0-1.01.105,4.9,4.9,0,0,1,.385.708,4.816,4.816,0,0,1,.409,1.84,3.471,3.471,0,0,1-.514,1.994A4.671,4.671,0,0,1,748.169,434.956Z" transform="translate(-337.433 -275.005)" fill="#42161a"/>
          <path id="Caminho_84" data-name="Caminho 84" d="M622.431,439l-1.878,1.175a5.218,5.218,0,0,1-.685.334,1.1,1.1,0,0,1-.16.046c-.017-.02-.035-.04-.051-.061-.42-.755-.345-2.307-.327-3.647a7.9,7.9,0,0,0-.5-3.272,2.682,2.682,0,0,0-.638-.954,4.739,4.739,0,0,1-.384.859,18.276,18.276,0,0,1-1.527,2.158,9.439,9.439,0,0,0-2.161,4.966,6.429,6.429,0,0,0,1.3,4.353,5.508,5.508,0,0,0,5.485,2.05,7.568,7.568,0,0,0,3.779-2.1,16.809,16.809,0,0,0,1.843-2.18,18.275,18.275,0,0,0,2.2-4.094,16.7,16.7,0,0,0,.836-2.98,10.365,10.365,0,0,0,.153-1.12L626,436.814C624.97,437.445,623.762,438.184,622.431,439Z" transform="translate(-334.306 -275.091)" fill="#42161a"/>
          <path id="Caminho_85" data-name="Caminho 85" d="M956.531,665.957c4.225,0,4.232-6.566,0-6.566S952.3,665.957,956.531,665.957Z" transform="translate(-342.612 -280.643)" fill="#42161a"/>
          <path id="Caminho_86" data-name="Caminho 86" d="M941.106,658.1c4.225,0,4.232-6.566,0-6.566S936.875,658.1,941.106,658.1Z" transform="translate(-342.235 -280.451)" fill="#42161a"/>
          <path id="Caminho_87" data-name="Caminho 87" d="M939.984,674.09c4.225,0,4.232-6.566,0-6.566S935.753,674.09,939.984,674.09Z" transform="translate(-342.207 -280.842)" fill="#42161a"/>
          <path id="Caminho_88" data-name="Caminho 88" d="M694.031,488.878c-4.225,0-4.232,6.566,0,6.566S698.263,488.878,694.031,488.878Z" transform="translate(-336.185 -276.468)" fill="#42161a"/>
          <path id="Caminho_89" data-name="Caminho 89" d="M693.47,509.07c-4.225,0-4.232,6.566,0,6.566S697.7,509.07,693.47,509.07Z" transform="translate(-336.172 -276.962)" fill="#42161a"/>
          <path id="Caminho_90" data-name="Caminho 90" d="M709.175,509.747c4.225,0,4.232-6.566,0-6.566S704.944,509.747,709.175,509.747Z" transform="translate(-336.556 -276.818)" fill="#42161a"/>
          <path id="Caminho_91" data-name="Caminho 91" d="M598.117,611.434c-4.225,0-4.232,6.566,0,6.566S602.349,611.434,598.117,611.434Z" transform="translate(-333.837 -279.469)" fill="#42161a"/>
          <path id="Caminho_92" data-name="Caminho 92" d="M583.814,620.689c-4.225,0-4.232,6.566,0,6.566S588.046,620.689,583.814,620.689Z" transform="translate(-333.487 -279.695)" fill="#42161a"/>
          <path id="Caminho_93" data-name="Caminho 93" d="M597.276,629.1c-4.225,0-4.232,6.566,0,6.566S601.508,629.1,597.276,629.1Z" transform="translate(-333.817 -279.901)" fill="#42161a"/>
          <path id="Caminho_94" data-name="Caminho 94" d="M468.97,627c-4.225,0-4.232,6.566,0,6.566S473.2,627,468.97,627Z" transform="translate(-330.675 -279.85)" fill="#42161a"/>
          <path id="Caminho_95" data-name="Caminho 95" d="M713.1,615.756c4.225,0,4.232-6.566,0-6.566S708.87,615.756,713.1,615.756Z" transform="translate(-336.652 -279.414)" fill="#42161a"/>
          <path id="Caminho_96" data-name="Caminho 96" d="M726.282,619.848c-4.225,0-4.232,6.566,0,6.566S730.514,619.848,726.282,619.848Z" transform="translate(-336.975 -279.675)" fill="#42161a"/>
          <path id="Caminho_97" data-name="Caminho 97" d="M731.05,604.423c-4.225,0-4.232,6.566,0,6.566S735.282,604.423,731.05,604.423Z" transform="translate(-337.092 -279.297)" fill="#42161a"/>
          <path id="Caminho_98" data-name="Caminho 98" d="M833.694,638.357c-4.225,0-4.232,6.566,0,6.566S837.926,638.357,833.694,638.357Z" transform="translate(-339.605 -280.128)" fill="#42161a"/>
          <path id="Caminho_99" data-name="Caminho 99" d="M778.165,419.327c-4.225,0-4.232,6.566,0,6.566S782.4,419.327,778.165,419.327Z" transform="translate(-338.245 -274.765)" fill="#42161a"/>
          <path id="Caminho_100" data-name="Caminho 100" d="M559.976,515.24c-4.225,0-4.232,6.566,0,6.566S564.208,515.24,559.976,515.24Z" transform="translate(-332.903 -277.113)" fill="#42161a"/>
          <path id="Caminho_101" data-name="Caminho 101" d="M644.391,416.918c4.225,0,4.232-6.566,0-6.566S640.16,416.918,644.391,416.918Z" transform="translate(-334.97 -274.545)" fill="#42161a"/>
          <path id="Caminho_102" data-name="Caminho 102" d="M824.159,499.37c4.225,0,4.232-6.566,0-6.566S819.928,499.37,824.159,499.37Z" transform="translate(-339.371 -276.564)" fill="#42161a"/>
          <path id="Caminho_103" data-name="Caminho 103" d="M383.874,861.471c3.168,0,3.174-4.924,0-4.924S380.7,861.471,383.874,861.471Z" transform="translate(-328.611 -285.47)" fill="#42161a"/>
          <path id="Caminho_104" data-name="Caminho 104" d="M407.432,956.262c3.168,0,3.174-4.924,0-4.924S404.258,956.262,407.432,956.262Z" transform="translate(-329.188 -287.791)" fill="#42161a"/>
          <path id="Caminho_105" data-name="Caminho 105" d="M403.505,947.288c3.168,0,3.174-4.924,0-4.924S400.332,947.288,403.505,947.288Z" transform="translate(-329.092 -287.571)" fill="#42161a"/>
          <path id="Caminho_106" data-name="Caminho 106" d="M397.9,954.019c3.168,0,3.174-4.924,0-4.924S394.723,954.019,397.9,954.019Z" transform="translate(-328.955 -287.736)" fill="#42161a"/>
          <path id="Caminho_107" data-name="Caminho 107" d="M993.57,1049.226c3.169,0,3.174-4.924,0-4.924S990.4,1049.226,993.57,1049.226Z" transform="translate(-343.539 -290.067)" fill="#42161a"/>
          <path id="Caminho_108" data-name="Caminho 108" d="M1015.87,909.988c3.168,0,3.174-4.924,0-4.924S1012.69,909.988,1015.87,909.988Z" transform="translate(-344.085 -286.658)" fill="#42161a"/>
          <path id="Caminho_109" data-name="Caminho 109" d="M1015.02,900.734c3.168,0,3.174-4.924,0-4.924S1011.85,900.734,1015.02,900.734Z" transform="translate(-344.064 -286.431)" fill="#42161a"/>
          <path id="Caminho_110" data-name="Caminho 110" d="M1005.35,905.782c3.168,0,3.174-4.924,0-4.924S1002.18,905.782,1005.35,905.782Z" transform="translate(-343.827 -286.555)" fill="#42161a"/>
          <path id="Caminho_111" data-name="Caminho 111" d="M995.814,809.431c-3.168,0-3.174,4.924,0,4.924S998.988,809.431,995.814,809.431Z" transform="translate(-343.594 -284.316)" fill="#42161a"/>
        </g>
        <text id="PIZZA" transform="translate(180.611 649.348)" fill="#42161a" font-size="125" font-family="SegoeUI, Segoe UI" letter-spacing="0.023em"><tspan x="0" y="0">PIZZA</tspan></text>
        <text id="HOUSE" transform="translate(150.595 754.404)" fill="#42161a" font-size="125" font-family="SegoeUI, Segoe UI" letter-spacing="0.023em"><tspan x="0" y="0">HOUSE</tspan></text>
      </g>
    </g>
  </g>
</svg>
